M48
;DRILL file {KiCad 5.0.2-bee76a0~70~ubuntu16.04.1} date Fri 15 Mar 2019 04:30:48 PM MDT
;FORMAT={-:-/ absolute / inch / decimal}
FMAT,2
INCH,TZ
T1C0.0150
T2C0.0157
T3C0.0400
%
G90
G05
T1
X5.43Y-4.04
X5.44Y-4.5475
X5.6025Y-4.5475
X5.6875Y-4.3175
X5.7175Y-3.9025
X5.8075Y-4.3325
X5.81Y-4.0525
X5.8375Y-4.76
X5.8825Y-4.255
X5.9325Y-4.27
X5.9925Y-4.4025
X6.02Y-4.8375
X6.0775Y-4.1175
X6.1725Y-4.0475
X6.2Y-4.8
X6.2563Y-4.4217
X6.485Y-4.825
T2
X5.58Y-4.1725
X5.58Y-4.3375
X5.715Y-4.85
X5.7202Y-4.4198
X5.7575Y-4.1625
X5.765Y-4.0575
X5.8125Y-4.5975
X5.8134Y-4.5534
X5.8525Y-4.3025
X5.8875Y-4.5825
X6.1702Y-4.2302
X6.21Y-4.075
X6.275Y-4.0425
X6.28Y-4.125
X6.2802Y-4.3277
X6.3232Y-4.3041
X6.335Y-3.8525
X6.3575Y-3.9275
X6.455Y-4.305
X6.5239Y-4.08
T3
X5.5675Y-4.9225
X5.568Y-3.762
X5.6675Y-3.7625
X5.6675Y-4.9225
X5.7675Y-3.7625
X5.7675Y-4.9225
X5.8675Y-3.7625
X5.8675Y-4.9225
X5.9675Y-4.9225
X5.97Y-3.7625
X6.0675Y-3.762
X6.0675Y-4.9225
X6.1675Y-3.7625
X6.1675Y-4.925
X6.2675Y-3.7625
X6.2675Y-4.9225
X6.3675Y-3.7625
X6.3675Y-4.9225
X5.5675Y-4.9225
X6.2675Y-4.9225
X5.6675Y-3.7625
X5.7675Y-4.9225
X6.3675Y-3.7625
X6.3675Y-4.9225
X6.0675Y-3.7625
X6.1675Y-4.925
X6.1675Y-3.7625
X5.6675Y-4.9225
X5.9675Y-4.9225
X6.2675Y-3.7625
X5.8675Y-4.9225
X5.7675Y-3.7625
X5.5675Y-3.7625
X5.97Y-3.7625
X6.0675Y-4.9225
X5.8675Y-3.7625
T0
M30
