G04 #@! TF.GenerationSoftware,KiCad,Pcbnew,5.0.2-bee76a0~70~ubuntu16.04.1*
G04 #@! TF.CreationDate,2019-03-15T16:31:10-06:00*
G04 #@! TF.ProjectId,AX25_TNC_modemmodule,41583235-5f54-44e4-935f-6d6f64656d6d,rev?*
G04 #@! TF.SameCoordinates,Original*
G04 #@! TF.FileFunction,Legend,Top*
G04 #@! TF.FilePolarity,Positive*
%FSLAX46Y46*%
G04 Gerber Fmt 4.6, Leading zero omitted, Abs format (unit mm)*
G04 Created by KiCad (PCBNEW 5.0.2-bee76a0~70~ubuntu16.04.1) date Fri 15 Mar 2019 04:31:10 PM MDT*
%MOMM*%
%LPD*%
G01*
G04 APERTURE LIST*
%ADD10C,0.127000*%
%ADD11C,0.254000*%
%ADD12C,0.222250*%
%ADD13C,0.177800*%
%ADD14C,0.190500*%
%ADD15C,0.120000*%
%ADD16C,0.150000*%
%ADD17C,0.010000*%
G04 APERTURE END LIST*
D10*
X138684000Y-124499309D02*
X138684000Y-123991309D01*
X138877523Y-123991309D01*
X138925904Y-124015500D01*
X138950095Y-124039690D01*
X138974285Y-124088071D01*
X138974285Y-124160642D01*
X138950095Y-124209023D01*
X138925904Y-124233214D01*
X138877523Y-124257404D01*
X138684000Y-124257404D01*
X139192000Y-124499309D02*
X139192000Y-123991309D01*
X139433904Y-124499309D02*
X139433904Y-123991309D01*
X139724190Y-124499309D01*
X139724190Y-123991309D01*
X140232190Y-124499309D02*
X139941904Y-124499309D01*
X140087047Y-124499309D02*
X140087047Y-123991309D01*
X140038666Y-124063880D01*
X139990285Y-124112261D01*
X139941904Y-124136452D01*
D11*
X149564461Y-107809225D02*
X149940777Y-107432909D01*
X149974987Y-107330278D01*
X149940777Y-107227646D01*
X149803935Y-107090804D01*
X149701303Y-107056594D01*
X149598672Y-107775014D02*
X149496040Y-107740804D01*
X149324988Y-107569751D01*
X149290777Y-107467120D01*
X149324988Y-107364488D01*
X149393409Y-107296067D01*
X149496040Y-107261857D01*
X149598672Y-107296067D01*
X149769724Y-107467120D01*
X149872356Y-107501330D01*
X150282882Y-107569751D02*
X150556566Y-107843435D01*
X150624987Y-107432909D02*
X150009198Y-108048698D01*
X149974987Y-108151330D01*
X150009198Y-108253961D01*
X150077619Y-108322382D01*
X150317092Y-108561856D02*
X150796039Y-108082909D01*
X150727618Y-108151330D02*
X150796039Y-108151330D01*
X150898671Y-108185540D01*
X151001302Y-108288172D01*
X151035513Y-108390803D01*
X151001302Y-108493435D01*
X150624987Y-108869750D01*
X151001302Y-108493435D02*
X151103934Y-108459224D01*
X151206565Y-108493435D01*
X151309197Y-108596066D01*
X151343407Y-108698698D01*
X151309197Y-108801329D01*
X150932881Y-109177644D01*
X151582880Y-109759223D02*
X151480249Y-109725012D01*
X151343407Y-109588170D01*
X151309197Y-109485539D01*
X151343407Y-109382907D01*
X151617091Y-109109223D01*
X151719722Y-109075013D01*
X151822354Y-109109223D01*
X151959196Y-109246065D01*
X151993406Y-109348697D01*
X151959196Y-109451328D01*
X151890775Y-109519749D01*
X151480249Y-109246065D01*
X152677616Y-109964486D02*
X152096038Y-110546064D01*
X151993406Y-110580275D01*
X151924985Y-110580275D01*
X151822354Y-110546064D01*
X151719722Y-110443433D01*
X151685512Y-110340801D01*
X152232880Y-110409222D02*
X152130248Y-110375012D01*
X151993406Y-110238170D01*
X151959196Y-110135538D01*
X151959196Y-110067117D01*
X151993406Y-109964486D01*
X152198669Y-109759223D01*
X152301301Y-109725012D01*
X152369722Y-109725012D01*
X152472353Y-109759223D01*
X152609195Y-109896065D01*
X152643406Y-109998696D01*
X152848669Y-111093432D02*
X153224984Y-110717117D01*
X153259195Y-110614485D01*
X153224984Y-110511854D01*
X153088142Y-110375012D01*
X152985511Y-110340801D01*
X152882879Y-111059222D02*
X152780248Y-111025011D01*
X152609195Y-110853959D01*
X152574985Y-110751327D01*
X152609195Y-110648696D01*
X152677616Y-110580275D01*
X152780248Y-110546064D01*
X152882879Y-110580275D01*
X153053932Y-110751327D01*
X153156563Y-110785538D01*
X149265119Y-108587514D02*
X149709856Y-109032250D01*
X149196698Y-109066461D01*
X149299330Y-109169092D01*
X149333540Y-109271724D01*
X149333540Y-109340145D01*
X149299330Y-109442776D01*
X149128277Y-109613829D01*
X149025646Y-109648039D01*
X148957225Y-109648039D01*
X148854593Y-109613829D01*
X148649330Y-109408566D01*
X148615120Y-109305934D01*
X148615120Y-109237513D01*
X149915119Y-109374355D02*
X149983540Y-109374355D01*
X150086171Y-109408566D01*
X150257223Y-109579618D01*
X150291434Y-109682250D01*
X150291434Y-109750671D01*
X150257223Y-109853302D01*
X150188802Y-109921723D01*
X150051961Y-109990144D01*
X149230909Y-109990144D01*
X149675645Y-110434880D01*
X150496697Y-110434880D02*
X150462486Y-110332249D01*
X150462486Y-110263828D01*
X150496697Y-110161197D01*
X150530907Y-110126986D01*
X150633539Y-110092776D01*
X150701960Y-110092776D01*
X150804591Y-110126986D01*
X150941433Y-110263828D01*
X150975644Y-110366459D01*
X150975644Y-110434880D01*
X150941433Y-110537512D01*
X150907223Y-110571722D01*
X150804591Y-110605933D01*
X150736170Y-110605933D01*
X150633539Y-110571722D01*
X150496697Y-110434880D01*
X150394065Y-110400670D01*
X150325644Y-110400670D01*
X150223013Y-110434880D01*
X150086171Y-110571722D01*
X150051961Y-110674354D01*
X150051961Y-110742775D01*
X150086171Y-110845406D01*
X150223013Y-110982248D01*
X150325644Y-111016459D01*
X150394065Y-111016459D01*
X150496697Y-110982248D01*
X150633539Y-110845406D01*
X150667749Y-110742775D01*
X150667749Y-110674354D01*
X150633539Y-110571722D01*
X151146696Y-110948038D02*
X150428276Y-111666458D01*
X151112486Y-110982248D02*
X151215117Y-111016459D01*
X151351959Y-111153301D01*
X151386170Y-111255932D01*
X151386170Y-111324353D01*
X151351959Y-111426985D01*
X151146696Y-111632248D01*
X151044065Y-111666458D01*
X150975644Y-111666458D01*
X150873012Y-111632248D01*
X150736170Y-111495406D01*
X150701960Y-111392774D01*
D12*
X144421230Y-110953979D02*
X144062020Y-110594769D01*
X144241625Y-110774374D02*
X144870243Y-110145756D01*
X144720572Y-110175691D01*
X144600835Y-110175691D01*
X144511032Y-110145756D01*
D13*
X136990666Y-96507300D02*
X137160000Y-96981433D01*
X137329333Y-96507300D01*
X137600266Y-96913700D02*
X137634133Y-96947566D01*
X137600266Y-96981433D01*
X137566400Y-96947566D01*
X137600266Y-96913700D01*
X137600266Y-96981433D01*
X137905066Y-96337966D02*
X137938933Y-96304100D01*
X138006666Y-96270233D01*
X138176000Y-96270233D01*
X138243733Y-96304100D01*
X138277600Y-96337966D01*
X138311466Y-96405700D01*
X138311466Y-96473433D01*
X138277600Y-96575033D01*
X137871200Y-96981433D01*
X138311466Y-96981433D01*
X138616266Y-96913700D02*
X138650133Y-96947566D01*
X138616266Y-96981433D01*
X138582400Y-96947566D01*
X138616266Y-96913700D01*
X138616266Y-96981433D01*
X139327466Y-96981433D02*
X138921066Y-96981433D01*
X139124266Y-96981433D02*
X139124266Y-96270233D01*
X139056533Y-96371833D01*
X138988800Y-96439566D01*
X138921066Y-96473433D01*
D14*
X151438428Y-97245714D02*
X151438428Y-97862571D01*
X151402142Y-97935142D01*
X151365857Y-97971428D01*
X151293285Y-98007714D01*
X151184428Y-98007714D01*
X151111857Y-97971428D01*
X151438428Y-97717428D02*
X151365857Y-97753714D01*
X151220714Y-97753714D01*
X151148142Y-97717428D01*
X151111857Y-97681142D01*
X151075571Y-97608571D01*
X151075571Y-97390857D01*
X151111857Y-97318285D01*
X151148142Y-97282000D01*
X151220714Y-97245714D01*
X151365857Y-97245714D01*
X151438428Y-97282000D01*
X151728714Y-96991714D02*
X152200428Y-96991714D01*
X151946428Y-97282000D01*
X152055285Y-97282000D01*
X152127857Y-97318285D01*
X152164142Y-97354571D01*
X152200428Y-97427142D01*
X152200428Y-97608571D01*
X152164142Y-97681142D01*
X152127857Y-97717428D01*
X152055285Y-97753714D01*
X151837571Y-97753714D01*
X151765000Y-97717428D01*
X151728714Y-97681142D01*
D15*
G04 #@! TO.C,ISP*
X165350500Y-100905000D02*
X160150500Y-100905000D01*
X165350500Y-106045000D02*
X165350500Y-100905000D01*
X160150500Y-108645000D02*
X160150500Y-100905000D01*
X165350500Y-106045000D02*
X162750500Y-106045000D01*
X162750500Y-106045000D02*
X162750500Y-108645000D01*
X162750500Y-108645000D02*
X160150500Y-108645000D01*
X165350500Y-107315000D02*
X165350500Y-108645000D01*
X165350500Y-108645000D02*
X164020500Y-108645000D01*
G04 #@! TO.C,Y1*
X136122000Y-103406500D02*
X136122000Y-110731500D01*
X139722000Y-103406500D02*
X136122000Y-103406500D01*
X139722000Y-110731500D02*
X139722000Y-103406500D01*
G04 #@! TO.C,Q1*
X137106500Y-119235000D02*
X138036500Y-119235000D01*
X140266500Y-119235000D02*
X139336500Y-119235000D01*
X140266500Y-119235000D02*
X140266500Y-117075000D01*
X137106500Y-119235000D02*
X137106500Y-117775000D01*
G04 #@! TO.C,RV1*
X146917500Y-121593000D02*
X142197500Y-121593000D01*
X146917500Y-116673000D02*
X142197500Y-116673000D01*
X146917500Y-121593000D02*
X146917500Y-120313000D01*
X146917500Y-117953000D02*
X146917500Y-116673000D01*
X142197500Y-121593000D02*
X142197500Y-121113000D01*
X142197500Y-119453000D02*
X142197500Y-118813000D01*
X142197500Y-117153000D02*
X142197500Y-116673000D01*
X146917500Y-121213000D02*
X146917500Y-121213000D01*
X146917500Y-121213000D02*
X146917500Y-120313000D01*
X146917500Y-121213000D02*
X146917500Y-120313000D01*
G04 #@! TO.C,R12*
X148108000Y-123498500D02*
X146908000Y-123498500D01*
X146908000Y-121738500D02*
X148108000Y-121738500D01*
G04 #@! TO.C,R10*
X139033999Y-112912000D02*
X140233999Y-112912000D01*
X140233999Y-114672000D02*
X139033999Y-114672000D01*
G04 #@! TO.C,C1*
X154026500Y-98258500D02*
X154026500Y-99258500D01*
X155726500Y-99258500D02*
X155726500Y-98258500D01*
G04 #@! TO.C,C2*
X144515299Y-115173880D02*
X145222406Y-115880987D01*
X146424487Y-114678906D02*
X145717380Y-113971799D01*
G04 #@! TO.C,C3*
X151709500Y-98972000D02*
X150709500Y-98972000D01*
X150709500Y-100672000D02*
X151709500Y-100672000D01*
G04 #@! TO.C,C4*
X139802499Y-104481500D02*
X139802499Y-105481500D01*
X141502499Y-105481500D02*
X141502499Y-104481500D01*
G04 #@! TO.C,C5*
X139802500Y-110609000D02*
X139802500Y-111609000D01*
X141502500Y-111609000D02*
X141502500Y-110609000D01*
G04 #@! TO.C,C6*
X156194880Y-121740201D02*
X156901987Y-121033094D01*
X155699906Y-119831013D02*
X154992799Y-120538120D01*
G04 #@! TO.C,C7*
X151550500Y-120371500D02*
X150550500Y-120371500D01*
X150550500Y-122071500D02*
X151550500Y-122071500D01*
G04 #@! TO.C,C8*
X144868000Y-100909500D02*
X144868000Y-99909500D01*
X143168000Y-99909500D02*
X143168000Y-100909500D01*
G04 #@! TO.C,C9*
X145644500Y-99909500D02*
X145644500Y-100909500D01*
X147344500Y-100909500D02*
X147344500Y-99909500D01*
G04 #@! TO.C,D2*
X160750134Y-116147084D02*
X161740084Y-115157134D01*
X161740084Y-115157134D02*
X159760185Y-113177235D01*
X160750134Y-116147084D02*
X158770235Y-114167185D01*
G04 #@! TO.C,D3*
X161956634Y-115004084D02*
X159976735Y-113024185D01*
X162946584Y-114014134D02*
X160966685Y-112034235D01*
X161956634Y-115004084D02*
X162946584Y-114014134D01*
G04 #@! TO.C,R1*
X156610259Y-106038767D02*
X155761731Y-105190239D01*
X157006239Y-103945731D02*
X157854767Y-104794259D01*
G04 #@! TO.C,R2*
X154331000Y-102480000D02*
X153131000Y-102480000D01*
X153131000Y-100720000D02*
X154331000Y-100720000D01*
G04 #@! TO.C,R3*
X148818000Y-100720000D02*
X150018000Y-100720000D01*
X150018000Y-102480000D02*
X148818000Y-102480000D01*
G04 #@! TO.C,R4*
X161789000Y-118018000D02*
X161789000Y-119218000D01*
X160029000Y-119218000D02*
X160029000Y-118018000D01*
G04 #@! TO.C,R5*
X153832216Y-117724339D02*
X154680744Y-118572867D01*
X153436236Y-119817375D02*
X152587708Y-118968847D01*
G04 #@! TO.C,R6*
X154783274Y-118470336D02*
X153934746Y-117621808D01*
X155179254Y-116377300D02*
X156027782Y-117225828D01*
G04 #@! TO.C,R7*
X156526293Y-115030262D02*
X157374821Y-115878790D01*
X156130313Y-117123298D02*
X155281785Y-116274770D01*
G04 #@! TO.C,R8*
X157873331Y-113683223D02*
X158721859Y-114531751D01*
X157477351Y-115776259D02*
X156628823Y-114927731D01*
G04 #@! TO.C,R9*
X161743500Y-119215500D02*
X161743500Y-118015500D01*
X163503500Y-118015500D02*
X163503500Y-119215500D01*
G04 #@! TO.C,R11*
X157222231Y-118329761D02*
X158070759Y-117481233D01*
X159315267Y-118725741D02*
X158466739Y-119574269D01*
G04 #@! TO.C,R13*
X144682261Y-105540769D02*
X143833733Y-104692241D01*
X145078241Y-103447733D02*
X145926769Y-104296261D01*
D16*
G04 #@! TO.C,U1*
X145596893Y-109661010D02*
X145755992Y-109820109D01*
X150723417Y-104534486D02*
X150953227Y-104764296D01*
X155849941Y-109661010D02*
X155620131Y-109431200D01*
X150723417Y-114787534D02*
X150493607Y-114557724D01*
X145596893Y-109661010D02*
X145826703Y-109431200D01*
X150723417Y-114787534D02*
X150953227Y-114557724D01*
X155849941Y-109661010D02*
X155620131Y-109890820D01*
X150723417Y-104534486D02*
X150493607Y-104764296D01*
X145755992Y-109820109D02*
X144748365Y-110827736D01*
D15*
G04 #@! TO.C,R14*
X155901500Y-101247500D02*
X155901500Y-100047500D01*
X157661500Y-100047500D02*
X157661500Y-101247500D01*
D17*
G04 #@! TO.C,G\002A\002A\002A*
G36*
X136727159Y-97926686D02*
X136781854Y-97878628D01*
X136833946Y-97839360D01*
X136839836Y-97835429D01*
X136944611Y-97776397D01*
X137054457Y-97733004D01*
X137167985Y-97705238D01*
X137283809Y-97693081D01*
X137400542Y-97696522D01*
X137516798Y-97715546D01*
X137631189Y-97750137D01*
X137742329Y-97800283D01*
X137818858Y-97845552D01*
X137861833Y-97871359D01*
X137914873Y-97899736D01*
X137972380Y-97927969D01*
X138028752Y-97953349D01*
X138078389Y-97973163D01*
X138092615Y-97978111D01*
X138133826Y-97990886D01*
X138172675Y-98000755D01*
X138211780Y-98007886D01*
X138253753Y-98012446D01*
X138301213Y-98014606D01*
X138356776Y-98014535D01*
X138423056Y-98012398D01*
X138502671Y-98008370D01*
X138533632Y-98006576D01*
X138628640Y-98001681D01*
X138710839Y-97999249D01*
X138784187Y-97999385D01*
X138852647Y-98002190D01*
X138920174Y-98007768D01*
X138990730Y-98016220D01*
X139010452Y-98018957D01*
X139196623Y-98053582D01*
X139376073Y-98103482D01*
X139548304Y-98168454D01*
X139712822Y-98248303D01*
X139869131Y-98342832D01*
X139931433Y-98386297D01*
X139958154Y-98406356D01*
X139985169Y-98428167D01*
X140014370Y-98453466D01*
X140047649Y-98483991D01*
X140086898Y-98521478D01*
X140134008Y-98567663D01*
X140190871Y-98624283D01*
X140193029Y-98626443D01*
X140253439Y-98687302D01*
X140303408Y-98738872D01*
X140344751Y-98783551D01*
X140379284Y-98823736D01*
X140408822Y-98861822D01*
X140435177Y-98900208D01*
X140460167Y-98941291D01*
X140485605Y-98987467D01*
X140513307Y-99041133D01*
X140525798Y-99065976D01*
X140603812Y-99240357D01*
X140665635Y-99418854D01*
X140711209Y-99600581D01*
X140740478Y-99784656D01*
X140753385Y-99970193D01*
X140749873Y-100156307D01*
X140729886Y-100342112D01*
X140693368Y-100526723D01*
X140640261Y-100709258D01*
X140632491Y-100731780D01*
X140612854Y-100783950D01*
X140589339Y-100840502D01*
X140563682Y-100897763D01*
X140537616Y-100952060D01*
X140512877Y-100999716D01*
X140491200Y-101037060D01*
X140481523Y-101051444D01*
X140459063Y-101082258D01*
X140451961Y-101048533D01*
X140446354Y-101025230D01*
X140437381Y-100991510D01*
X140426603Y-100953154D01*
X140421668Y-100936224D01*
X140401764Y-100868275D01*
X140386136Y-100812223D01*
X140374508Y-100764756D01*
X140366603Y-100722562D01*
X140362147Y-100682330D01*
X140360864Y-100640747D01*
X140362478Y-100594503D01*
X140366715Y-100540287D01*
X140373296Y-100474785D01*
X140378917Y-100422604D01*
X140390866Y-100283842D01*
X140394650Y-100157819D01*
X140389720Y-100042146D01*
X140375522Y-99934435D01*
X140351505Y-99832297D01*
X140317118Y-99733345D01*
X140271810Y-99635191D01*
X140215027Y-99535447D01*
X140151921Y-99439853D01*
X140110511Y-99385035D01*
X140059673Y-99324811D01*
X140002504Y-99262326D01*
X139942108Y-99200727D01*
X139881580Y-99143160D01*
X139824023Y-99092768D01*
X139772533Y-99052699D01*
X139765636Y-99047850D01*
X139644810Y-98971452D01*
X139525982Y-98911169D01*
X139407644Y-98866543D01*
X139288287Y-98837123D01*
X139166405Y-98822456D01*
X139040491Y-98822087D01*
X139019535Y-98823347D01*
X138875001Y-98834549D01*
X138745758Y-98847552D01*
X138630211Y-98862879D01*
X138526767Y-98881052D01*
X138433830Y-98902591D01*
X138349807Y-98928021D01*
X138273103Y-98957864D01*
X138202124Y-98992640D01*
X138135275Y-99032874D01*
X138070963Y-99079085D01*
X138007592Y-99131799D01*
X137968463Y-99167609D01*
X137900246Y-99229678D01*
X137838678Y-99280109D01*
X137780464Y-99320976D01*
X137722313Y-99354347D01*
X137660933Y-99382297D01*
X137593031Y-99406894D01*
X137583023Y-99410123D01*
X137467553Y-99438317D01*
X137351217Y-99450306D01*
X137235530Y-99446651D01*
X137122002Y-99427913D01*
X137012153Y-99394651D01*
X136907494Y-99347428D01*
X136809540Y-99286802D01*
X136719805Y-99213335D01*
X136691389Y-99182879D01*
X136855968Y-99018300D01*
X136906046Y-99065551D01*
X136955815Y-99104888D01*
X136980528Y-99121012D01*
X137074835Y-99167882D01*
X137172815Y-99198919D01*
X137272806Y-99214203D01*
X137373147Y-99213814D01*
X137472176Y-99197828D01*
X137568232Y-99166326D01*
X137659653Y-99119386D01*
X137708147Y-99086431D01*
X137743211Y-99059365D01*
X137770032Y-99035713D01*
X137793977Y-99010127D01*
X137820414Y-98977259D01*
X137828942Y-98966091D01*
X137886653Y-98876631D01*
X137928722Y-98781958D01*
X137955048Y-98683578D01*
X137965535Y-98582993D01*
X137960084Y-98481705D01*
X137938597Y-98381218D01*
X137900976Y-98283034D01*
X137876581Y-98236148D01*
X137850369Y-98197494D01*
X137813890Y-98153690D01*
X137771137Y-98108727D01*
X137726097Y-98066595D01*
X137682761Y-98031282D01*
X137649774Y-98009341D01*
X137553772Y-97963935D01*
X137454584Y-97934376D01*
X137353827Y-97920599D01*
X137253120Y-97922539D01*
X137154080Y-97940134D01*
X137058324Y-97973316D01*
X136967471Y-98022022D01*
X136944538Y-98037441D01*
X136898890Y-98071111D01*
X136863038Y-98101973D01*
X136831772Y-98135072D01*
X136799886Y-98175453D01*
X136794427Y-98182859D01*
X136739891Y-98271231D01*
X136700792Y-98365288D01*
X136677248Y-98463499D01*
X136669376Y-98564338D01*
X136677294Y-98666276D01*
X136701119Y-98767783D01*
X136740967Y-98867334D01*
X136741830Y-98869093D01*
X136770066Y-98916066D01*
X136809377Y-98967136D01*
X136855968Y-99018300D01*
X136691389Y-99182879D01*
X136639805Y-99127588D01*
X136575385Y-99037177D01*
X136518246Y-98929548D01*
X136476952Y-98817427D01*
X136451479Y-98702236D01*
X136441804Y-98585395D01*
X136447903Y-98468328D01*
X136469754Y-98352456D01*
X136507335Y-98239202D01*
X136560621Y-98129988D01*
X136590831Y-98080842D01*
X136627308Y-98032070D01*
X136674196Y-97979259D01*
X136727159Y-97926686D01*
X136727159Y-97926686D01*
G37*
X136727159Y-97926686D02*
X136781854Y-97878628D01*
X136833946Y-97839360D01*
X136839836Y-97835429D01*
X136944611Y-97776397D01*
X137054457Y-97733004D01*
X137167985Y-97705238D01*
X137283809Y-97693081D01*
X137400542Y-97696522D01*
X137516798Y-97715546D01*
X137631189Y-97750137D01*
X137742329Y-97800283D01*
X137818858Y-97845552D01*
X137861833Y-97871359D01*
X137914873Y-97899736D01*
X137972380Y-97927969D01*
X138028752Y-97953349D01*
X138078389Y-97973163D01*
X138092615Y-97978111D01*
X138133826Y-97990886D01*
X138172675Y-98000755D01*
X138211780Y-98007886D01*
X138253753Y-98012446D01*
X138301213Y-98014606D01*
X138356776Y-98014535D01*
X138423056Y-98012398D01*
X138502671Y-98008370D01*
X138533632Y-98006576D01*
X138628640Y-98001681D01*
X138710839Y-97999249D01*
X138784187Y-97999385D01*
X138852647Y-98002190D01*
X138920174Y-98007768D01*
X138990730Y-98016220D01*
X139010452Y-98018957D01*
X139196623Y-98053582D01*
X139376073Y-98103482D01*
X139548304Y-98168454D01*
X139712822Y-98248303D01*
X139869131Y-98342832D01*
X139931433Y-98386297D01*
X139958154Y-98406356D01*
X139985169Y-98428167D01*
X140014370Y-98453466D01*
X140047649Y-98483991D01*
X140086898Y-98521478D01*
X140134008Y-98567663D01*
X140190871Y-98624283D01*
X140193029Y-98626443D01*
X140253439Y-98687302D01*
X140303408Y-98738872D01*
X140344751Y-98783551D01*
X140379284Y-98823736D01*
X140408822Y-98861822D01*
X140435177Y-98900208D01*
X140460167Y-98941291D01*
X140485605Y-98987467D01*
X140513307Y-99041133D01*
X140525798Y-99065976D01*
X140603812Y-99240357D01*
X140665635Y-99418854D01*
X140711209Y-99600581D01*
X140740478Y-99784656D01*
X140753385Y-99970193D01*
X140749873Y-100156307D01*
X140729886Y-100342112D01*
X140693368Y-100526723D01*
X140640261Y-100709258D01*
X140632491Y-100731780D01*
X140612854Y-100783950D01*
X140589339Y-100840502D01*
X140563682Y-100897763D01*
X140537616Y-100952060D01*
X140512877Y-100999716D01*
X140491200Y-101037060D01*
X140481523Y-101051444D01*
X140459063Y-101082258D01*
X140451961Y-101048533D01*
X140446354Y-101025230D01*
X140437381Y-100991510D01*
X140426603Y-100953154D01*
X140421668Y-100936224D01*
X140401764Y-100868275D01*
X140386136Y-100812223D01*
X140374508Y-100764756D01*
X140366603Y-100722562D01*
X140362147Y-100682330D01*
X140360864Y-100640747D01*
X140362478Y-100594503D01*
X140366715Y-100540287D01*
X140373296Y-100474785D01*
X140378917Y-100422604D01*
X140390866Y-100283842D01*
X140394650Y-100157819D01*
X140389720Y-100042146D01*
X140375522Y-99934435D01*
X140351505Y-99832297D01*
X140317118Y-99733345D01*
X140271810Y-99635191D01*
X140215027Y-99535447D01*
X140151921Y-99439853D01*
X140110511Y-99385035D01*
X140059673Y-99324811D01*
X140002504Y-99262326D01*
X139942108Y-99200727D01*
X139881580Y-99143160D01*
X139824023Y-99092768D01*
X139772533Y-99052699D01*
X139765636Y-99047850D01*
X139644810Y-98971452D01*
X139525982Y-98911169D01*
X139407644Y-98866543D01*
X139288287Y-98837123D01*
X139166405Y-98822456D01*
X139040491Y-98822087D01*
X139019535Y-98823347D01*
X138875001Y-98834549D01*
X138745758Y-98847552D01*
X138630211Y-98862879D01*
X138526767Y-98881052D01*
X138433830Y-98902591D01*
X138349807Y-98928021D01*
X138273103Y-98957864D01*
X138202124Y-98992640D01*
X138135275Y-99032874D01*
X138070963Y-99079085D01*
X138007592Y-99131799D01*
X137968463Y-99167609D01*
X137900246Y-99229678D01*
X137838678Y-99280109D01*
X137780464Y-99320976D01*
X137722313Y-99354347D01*
X137660933Y-99382297D01*
X137593031Y-99406894D01*
X137583023Y-99410123D01*
X137467553Y-99438317D01*
X137351217Y-99450306D01*
X137235530Y-99446651D01*
X137122002Y-99427913D01*
X137012153Y-99394651D01*
X136907494Y-99347428D01*
X136809540Y-99286802D01*
X136719805Y-99213335D01*
X136691389Y-99182879D01*
X136855968Y-99018300D01*
X136906046Y-99065551D01*
X136955815Y-99104888D01*
X136980528Y-99121012D01*
X137074835Y-99167882D01*
X137172815Y-99198919D01*
X137272806Y-99214203D01*
X137373147Y-99213814D01*
X137472176Y-99197828D01*
X137568232Y-99166326D01*
X137659653Y-99119386D01*
X137708147Y-99086431D01*
X137743211Y-99059365D01*
X137770032Y-99035713D01*
X137793977Y-99010127D01*
X137820414Y-98977259D01*
X137828942Y-98966091D01*
X137886653Y-98876631D01*
X137928722Y-98781958D01*
X137955048Y-98683578D01*
X137965535Y-98582993D01*
X137960084Y-98481705D01*
X137938597Y-98381218D01*
X137900976Y-98283034D01*
X137876581Y-98236148D01*
X137850369Y-98197494D01*
X137813890Y-98153690D01*
X137771137Y-98108727D01*
X137726097Y-98066595D01*
X137682761Y-98031282D01*
X137649774Y-98009341D01*
X137553772Y-97963935D01*
X137454584Y-97934376D01*
X137353827Y-97920599D01*
X137253120Y-97922539D01*
X137154080Y-97940134D01*
X137058324Y-97973316D01*
X136967471Y-98022022D01*
X136944538Y-98037441D01*
X136898890Y-98071111D01*
X136863038Y-98101973D01*
X136831772Y-98135072D01*
X136799886Y-98175453D01*
X136794427Y-98182859D01*
X136739891Y-98271231D01*
X136700792Y-98365288D01*
X136677248Y-98463499D01*
X136669376Y-98564338D01*
X136677294Y-98666276D01*
X136701119Y-98767783D01*
X136740967Y-98867334D01*
X136741830Y-98869093D01*
X136770066Y-98916066D01*
X136809377Y-98967136D01*
X136855968Y-99018300D01*
X136691389Y-99182879D01*
X136639805Y-99127588D01*
X136575385Y-99037177D01*
X136518246Y-98929548D01*
X136476952Y-98817427D01*
X136451479Y-98702236D01*
X136441804Y-98585395D01*
X136447903Y-98468328D01*
X136469754Y-98352456D01*
X136507335Y-98239202D01*
X136560621Y-98129988D01*
X136590831Y-98080842D01*
X136627308Y-98032070D01*
X136674196Y-97979259D01*
X136727159Y-97926686D01*
G36*
X136757206Y-99705850D02*
X136776481Y-99706937D01*
X136806970Y-99716999D01*
X136824087Y-99723554D01*
X136852157Y-99733118D01*
X136892065Y-99744992D01*
X136939110Y-99757855D01*
X136988589Y-99770390D01*
X137003908Y-99774053D01*
X137126244Y-99795535D01*
X137249814Y-99803230D01*
X137371369Y-99797209D01*
X137487656Y-99777541D01*
X137543603Y-99762367D01*
X137606204Y-99743008D01*
X137606826Y-99782885D01*
X137605645Y-99806420D01*
X137601972Y-99842003D01*
X137596357Y-99885022D01*
X137589355Y-99930865D01*
X137588457Y-99936278D01*
X137568378Y-100071324D01*
X137554895Y-100196429D01*
X137548052Y-100310421D01*
X137547896Y-100412133D01*
X137554475Y-100500393D01*
X137563895Y-100557242D01*
X137600110Y-100685990D01*
X137652417Y-100813054D01*
X137719977Y-100937043D01*
X137801955Y-101056569D01*
X137897510Y-101170246D01*
X137989046Y-101261478D01*
X138106880Y-101362200D01*
X138225129Y-101448094D01*
X138343046Y-101518733D01*
X138459889Y-101573686D01*
X138574912Y-101612524D01*
X138614643Y-101622238D01*
X138702218Y-101638168D01*
X138792508Y-101647668D01*
X138888521Y-101650801D01*
X138993269Y-101647632D01*
X139109759Y-101638222D01*
X139152447Y-101633628D01*
X139228037Y-101625290D01*
X139289994Y-101619364D01*
X139341471Y-101616040D01*
X139385622Y-101615513D01*
X139425601Y-101617978D01*
X139464562Y-101623628D01*
X139505659Y-101632656D01*
X139552046Y-101645256D01*
X139606562Y-101661528D01*
X139649978Y-101674380D01*
X139693526Y-101686636D01*
X139731098Y-101696607D01*
X139749777Y-101701143D01*
X139782427Y-101708581D01*
X139799703Y-101714099D01*
X139802591Y-101720150D01*
X139792077Y-101729182D01*
X139769148Y-101743645D01*
X139767341Y-101744775D01*
X139672202Y-101797871D01*
X139563607Y-101847091D01*
X139444784Y-101891457D01*
X139318961Y-101929987D01*
X139189367Y-101961704D01*
X139059230Y-101985626D01*
X138931776Y-102000778D01*
X138920626Y-102001671D01*
X138747226Y-102009081D01*
X138581739Y-102003582D01*
X138420612Y-101984721D01*
X138260289Y-101952048D01*
X138097215Y-101905111D01*
X138058789Y-101892196D01*
X137940692Y-101848812D01*
X137835832Y-101804237D01*
X137740525Y-101756597D01*
X137651089Y-101704021D01*
X137563842Y-101644634D01*
X137545314Y-101631019D01*
X137508838Y-101601530D01*
X137463986Y-101561558D01*
X137413221Y-101513638D01*
X137359007Y-101460296D01*
X137303805Y-101404063D01*
X137250081Y-101347469D01*
X137200295Y-101293044D01*
X137156912Y-101243316D01*
X137122394Y-101200816D01*
X137109368Y-101183263D01*
X137007885Y-101025796D01*
X136921305Y-100860422D01*
X136849883Y-100687731D01*
X136793877Y-100508316D01*
X136767033Y-100394085D01*
X136744062Y-100254879D01*
X136730315Y-100107687D01*
X136726119Y-99958928D01*
X136731804Y-99815026D01*
X136735427Y-99774332D01*
X136739804Y-99737757D01*
X136746022Y-99715527D01*
X136757206Y-99705850D01*
X136757206Y-99705850D01*
G37*
X136757206Y-99705850D02*
X136776481Y-99706937D01*
X136806970Y-99716999D01*
X136824087Y-99723554D01*
X136852157Y-99733118D01*
X136892065Y-99744992D01*
X136939110Y-99757855D01*
X136988589Y-99770390D01*
X137003908Y-99774053D01*
X137126244Y-99795535D01*
X137249814Y-99803230D01*
X137371369Y-99797209D01*
X137487656Y-99777541D01*
X137543603Y-99762367D01*
X137606204Y-99743008D01*
X137606826Y-99782885D01*
X137605645Y-99806420D01*
X137601972Y-99842003D01*
X137596357Y-99885022D01*
X137589355Y-99930865D01*
X137588457Y-99936278D01*
X137568378Y-100071324D01*
X137554895Y-100196429D01*
X137548052Y-100310421D01*
X137547896Y-100412133D01*
X137554475Y-100500393D01*
X137563895Y-100557242D01*
X137600110Y-100685990D01*
X137652417Y-100813054D01*
X137719977Y-100937043D01*
X137801955Y-101056569D01*
X137897510Y-101170246D01*
X137989046Y-101261478D01*
X138106880Y-101362200D01*
X138225129Y-101448094D01*
X138343046Y-101518733D01*
X138459889Y-101573686D01*
X138574912Y-101612524D01*
X138614643Y-101622238D01*
X138702218Y-101638168D01*
X138792508Y-101647668D01*
X138888521Y-101650801D01*
X138993269Y-101647632D01*
X139109759Y-101638222D01*
X139152447Y-101633628D01*
X139228037Y-101625290D01*
X139289994Y-101619364D01*
X139341471Y-101616040D01*
X139385622Y-101615513D01*
X139425601Y-101617978D01*
X139464562Y-101623628D01*
X139505659Y-101632656D01*
X139552046Y-101645256D01*
X139606562Y-101661528D01*
X139649978Y-101674380D01*
X139693526Y-101686636D01*
X139731098Y-101696607D01*
X139749777Y-101701143D01*
X139782427Y-101708581D01*
X139799703Y-101714099D01*
X139802591Y-101720150D01*
X139792077Y-101729182D01*
X139769148Y-101743645D01*
X139767341Y-101744775D01*
X139672202Y-101797871D01*
X139563607Y-101847091D01*
X139444784Y-101891457D01*
X139318961Y-101929987D01*
X139189367Y-101961704D01*
X139059230Y-101985626D01*
X138931776Y-102000778D01*
X138920626Y-102001671D01*
X138747226Y-102009081D01*
X138581739Y-102003582D01*
X138420612Y-101984721D01*
X138260289Y-101952048D01*
X138097215Y-101905111D01*
X138058789Y-101892196D01*
X137940692Y-101848812D01*
X137835832Y-101804237D01*
X137740525Y-101756597D01*
X137651089Y-101704021D01*
X137563842Y-101644634D01*
X137545314Y-101631019D01*
X137508838Y-101601530D01*
X137463986Y-101561558D01*
X137413221Y-101513638D01*
X137359007Y-101460296D01*
X137303805Y-101404063D01*
X137250081Y-101347469D01*
X137200295Y-101293044D01*
X137156912Y-101243316D01*
X137122394Y-101200816D01*
X137109368Y-101183263D01*
X137007885Y-101025796D01*
X136921305Y-100860422D01*
X136849883Y-100687731D01*
X136793877Y-100508316D01*
X136767033Y-100394085D01*
X136744062Y-100254879D01*
X136730315Y-100107687D01*
X136726119Y-99958928D01*
X136731804Y-99815026D01*
X136735427Y-99774332D01*
X136739804Y-99737757D01*
X136746022Y-99715527D01*
X136757206Y-99705850D01*
G36*
X138388085Y-99400816D02*
X138450628Y-99358279D01*
X138501839Y-99325938D01*
X138601267Y-99431996D01*
X138700695Y-99538055D01*
X138728476Y-99525008D01*
X138750207Y-99517011D01*
X138782279Y-99507786D01*
X138818371Y-99499123D01*
X138824510Y-99497824D01*
X138856591Y-99490753D01*
X138881837Y-99484394D01*
X138896002Y-99479842D01*
X138897465Y-99478982D01*
X138900855Y-99469528D01*
X138907189Y-99446436D01*
X138915730Y-99412597D01*
X138925738Y-99370902D01*
X138932585Y-99341381D01*
X138943220Y-99296365D01*
X138953019Y-99257559D01*
X138961216Y-99227795D01*
X138967045Y-99209905D01*
X138969197Y-99205986D01*
X138981927Y-99204805D01*
X139007256Y-99205127D01*
X139040945Y-99206688D01*
X139078751Y-99209220D01*
X139116437Y-99212460D01*
X139149760Y-99216142D01*
X139164246Y-99218188D01*
X139220062Y-99229785D01*
X139282952Y-99247433D01*
X139348125Y-99269395D01*
X139410788Y-99293930D01*
X139466150Y-99319301D01*
X139508288Y-99343031D01*
X139531209Y-99357941D01*
X139491293Y-99495351D01*
X139451376Y-99632759D01*
X139524550Y-99704882D01*
X139597723Y-99777003D01*
X139727409Y-99737881D01*
X139771949Y-99724599D01*
X139810935Y-99713264D01*
X139841425Y-99704707D01*
X139860478Y-99699763D01*
X139865253Y-99698875D01*
X139873634Y-99706327D01*
X139886658Y-99726469D01*
X139902813Y-99756213D01*
X139920587Y-99792473D01*
X139938467Y-99832165D01*
X139954940Y-99872200D01*
X139968496Y-99909494D01*
X139968587Y-99909767D01*
X139987495Y-99975918D01*
X140002955Y-100047945D01*
X140013884Y-100119543D01*
X140019193Y-100184402D01*
X140019516Y-100205369D01*
X140019082Y-100262644D01*
X139882782Y-100296435D01*
X139837227Y-100307863D01*
X139797757Y-100318018D01*
X139767161Y-100326163D01*
X139748227Y-100331560D01*
X139743382Y-100333328D01*
X139740185Y-100342734D01*
X139735429Y-100363360D01*
X139732419Y-100378619D01*
X139725262Y-100410277D01*
X139714952Y-100448153D01*
X139706711Y-100474804D01*
X139688864Y-100528800D01*
X139790213Y-100623388D01*
X139824278Y-100655649D01*
X139853568Y-100684274D01*
X139875982Y-100707143D01*
X139889426Y-100722132D01*
X139892372Y-100726732D01*
X139888011Y-100738761D01*
X139875246Y-100761013D01*
X139856188Y-100790443D01*
X139832952Y-100824003D01*
X139807652Y-100858649D01*
X139782401Y-100891334D01*
X139759313Y-100919011D01*
X139757657Y-100920881D01*
X139728015Y-100952017D01*
X139692335Y-100986469D01*
X139657952Y-101017170D01*
X139655446Y-101019279D01*
X139619581Y-101047811D01*
X139578954Y-101077916D01*
X139541973Y-101103381D01*
X139539773Y-101104808D01*
X139481169Y-101142586D01*
X139385486Y-101038597D01*
X139289802Y-100934608D01*
X139223121Y-100956413D01*
X139186926Y-100967456D01*
X139152325Y-100976676D01*
X139125967Y-100982325D01*
X139122896Y-100982788D01*
X139100847Y-100986483D01*
X139087274Y-100990053D01*
X139085837Y-100990873D01*
X139082849Y-100999909D01*
X139076871Y-101022601D01*
X139068612Y-101056084D01*
X139058789Y-101097491D01*
X139052113Y-101126372D01*
X139041748Y-101171184D01*
X139032618Y-101209775D01*
X139025408Y-101239313D01*
X139020805Y-101256965D01*
X139019547Y-101260714D01*
X139009842Y-101261978D01*
X138987418Y-101261974D01*
X138956428Y-101260893D01*
X138921021Y-101258926D01*
X138885351Y-101256263D01*
X138853568Y-101253095D01*
X138853399Y-101253075D01*
X138800134Y-101244253D01*
X138740980Y-101230242D01*
X138679544Y-101212303D01*
X138619437Y-101191698D01*
X138564272Y-101169690D01*
X138517656Y-101147541D01*
X138483201Y-101126512D01*
X138476647Y-101121357D01*
X138468893Y-101114156D01*
X138464165Y-101106262D01*
X138462750Y-101094978D01*
X138464940Y-101077606D01*
X138471019Y-101051449D01*
X138481279Y-101013809D01*
X138492288Y-100975022D01*
X138528955Y-100846462D01*
X138452514Y-100769206D01*
X138442028Y-100758609D01*
X138663250Y-100537387D01*
X138722386Y-100590810D01*
X138791076Y-100632607D01*
X138868004Y-100661447D01*
X138951853Y-100676002D01*
X138987602Y-100677531D01*
X139071192Y-100669836D01*
X139151028Y-100646619D01*
X139224878Y-100609144D01*
X139290511Y-100558672D01*
X139345697Y-100496467D01*
X139368251Y-100462080D01*
X139404433Y-100384566D01*
X139424817Y-100303421D01*
X139429523Y-100220786D01*
X139418674Y-100138799D01*
X139392390Y-100059601D01*
X139350794Y-99985332D01*
X139340430Y-99970968D01*
X139283677Y-99908635D01*
X139218529Y-99859780D01*
X139147019Y-99824543D01*
X139071181Y-99803068D01*
X138993048Y-99795491D01*
X138914652Y-99801956D01*
X138838027Y-99822602D01*
X138765204Y-99857571D01*
X138698219Y-99907001D01*
X138679009Y-99925230D01*
X138623765Y-99989555D01*
X138584415Y-100056319D01*
X138559924Y-100127978D01*
X138549251Y-100206991D01*
X138548586Y-100234049D01*
X138556336Y-100320669D01*
X138578908Y-100400987D01*
X138614985Y-100473670D01*
X138663250Y-100537387D01*
X138442028Y-100758609D01*
X138376072Y-100691950D01*
X138247018Y-100731930D01*
X138202879Y-100745117D01*
X138164442Y-100755680D01*
X138134577Y-100762903D01*
X138116153Y-100766070D01*
X138111723Y-100765671D01*
X138101643Y-100750980D01*
X138087272Y-100724137D01*
X138070272Y-100688839D01*
X138052307Y-100648786D01*
X138035038Y-100607677D01*
X138020130Y-100569212D01*
X138009800Y-100538922D01*
X137998778Y-100498278D01*
X137988385Y-100451511D01*
X137979040Y-100401658D01*
X137971155Y-100351759D01*
X137965145Y-100304847D01*
X137961427Y-100263961D01*
X137960415Y-100232138D01*
X137962523Y-100212413D01*
X137964628Y-100208267D01*
X137974133Y-100204697D01*
X137997234Y-100197999D01*
X138031050Y-100188952D01*
X138072701Y-100178336D01*
X138102683Y-100170945D01*
X138235814Y-100138548D01*
X138247168Y-100082308D01*
X138256031Y-100044236D01*
X138267025Y-100004831D01*
X138274807Y-99981084D01*
X138291093Y-99936101D01*
X138188096Y-99838884D01*
X138085099Y-99741667D01*
X138115885Y-99692754D01*
X138194254Y-99583917D01*
X138285092Y-99486500D01*
X138388085Y-99400816D01*
X138388085Y-99400816D01*
G37*
X138388085Y-99400816D02*
X138450628Y-99358279D01*
X138501839Y-99325938D01*
X138601267Y-99431996D01*
X138700695Y-99538055D01*
X138728476Y-99525008D01*
X138750207Y-99517011D01*
X138782279Y-99507786D01*
X138818371Y-99499123D01*
X138824510Y-99497824D01*
X138856591Y-99490753D01*
X138881837Y-99484394D01*
X138896002Y-99479842D01*
X138897465Y-99478982D01*
X138900855Y-99469528D01*
X138907189Y-99446436D01*
X138915730Y-99412597D01*
X138925738Y-99370902D01*
X138932585Y-99341381D01*
X138943220Y-99296365D01*
X138953019Y-99257559D01*
X138961216Y-99227795D01*
X138967045Y-99209905D01*
X138969197Y-99205986D01*
X138981927Y-99204805D01*
X139007256Y-99205127D01*
X139040945Y-99206688D01*
X139078751Y-99209220D01*
X139116437Y-99212460D01*
X139149760Y-99216142D01*
X139164246Y-99218188D01*
X139220062Y-99229785D01*
X139282952Y-99247433D01*
X139348125Y-99269395D01*
X139410788Y-99293930D01*
X139466150Y-99319301D01*
X139508288Y-99343031D01*
X139531209Y-99357941D01*
X139491293Y-99495351D01*
X139451376Y-99632759D01*
X139524550Y-99704882D01*
X139597723Y-99777003D01*
X139727409Y-99737881D01*
X139771949Y-99724599D01*
X139810935Y-99713264D01*
X139841425Y-99704707D01*
X139860478Y-99699763D01*
X139865253Y-99698875D01*
X139873634Y-99706327D01*
X139886658Y-99726469D01*
X139902813Y-99756213D01*
X139920587Y-99792473D01*
X139938467Y-99832165D01*
X139954940Y-99872200D01*
X139968496Y-99909494D01*
X139968587Y-99909767D01*
X139987495Y-99975918D01*
X140002955Y-100047945D01*
X140013884Y-100119543D01*
X140019193Y-100184402D01*
X140019516Y-100205369D01*
X140019082Y-100262644D01*
X139882782Y-100296435D01*
X139837227Y-100307863D01*
X139797757Y-100318018D01*
X139767161Y-100326163D01*
X139748227Y-100331560D01*
X139743382Y-100333328D01*
X139740185Y-100342734D01*
X139735429Y-100363360D01*
X139732419Y-100378619D01*
X139725262Y-100410277D01*
X139714952Y-100448153D01*
X139706711Y-100474804D01*
X139688864Y-100528800D01*
X139790213Y-100623388D01*
X139824278Y-100655649D01*
X139853568Y-100684274D01*
X139875982Y-100707143D01*
X139889426Y-100722132D01*
X139892372Y-100726732D01*
X139888011Y-100738761D01*
X139875246Y-100761013D01*
X139856188Y-100790443D01*
X139832952Y-100824003D01*
X139807652Y-100858649D01*
X139782401Y-100891334D01*
X139759313Y-100919011D01*
X139757657Y-100920881D01*
X139728015Y-100952017D01*
X139692335Y-100986469D01*
X139657952Y-101017170D01*
X139655446Y-101019279D01*
X139619581Y-101047811D01*
X139578954Y-101077916D01*
X139541973Y-101103381D01*
X139539773Y-101104808D01*
X139481169Y-101142586D01*
X139385486Y-101038597D01*
X139289802Y-100934608D01*
X139223121Y-100956413D01*
X139186926Y-100967456D01*
X139152325Y-100976676D01*
X139125967Y-100982325D01*
X139122896Y-100982788D01*
X139100847Y-100986483D01*
X139087274Y-100990053D01*
X139085837Y-100990873D01*
X139082849Y-100999909D01*
X139076871Y-101022601D01*
X139068612Y-101056084D01*
X139058789Y-101097491D01*
X139052113Y-101126372D01*
X139041748Y-101171184D01*
X139032618Y-101209775D01*
X139025408Y-101239313D01*
X139020805Y-101256965D01*
X139019547Y-101260714D01*
X139009842Y-101261978D01*
X138987418Y-101261974D01*
X138956428Y-101260893D01*
X138921021Y-101258926D01*
X138885351Y-101256263D01*
X138853568Y-101253095D01*
X138853399Y-101253075D01*
X138800134Y-101244253D01*
X138740980Y-101230242D01*
X138679544Y-101212303D01*
X138619437Y-101191698D01*
X138564272Y-101169690D01*
X138517656Y-101147541D01*
X138483201Y-101126512D01*
X138476647Y-101121357D01*
X138468893Y-101114156D01*
X138464165Y-101106262D01*
X138462750Y-101094978D01*
X138464940Y-101077606D01*
X138471019Y-101051449D01*
X138481279Y-101013809D01*
X138492288Y-100975022D01*
X138528955Y-100846462D01*
X138452514Y-100769206D01*
X138442028Y-100758609D01*
X138663250Y-100537387D01*
X138722386Y-100590810D01*
X138791076Y-100632607D01*
X138868004Y-100661447D01*
X138951853Y-100676002D01*
X138987602Y-100677531D01*
X139071192Y-100669836D01*
X139151028Y-100646619D01*
X139224878Y-100609144D01*
X139290511Y-100558672D01*
X139345697Y-100496467D01*
X139368251Y-100462080D01*
X139404433Y-100384566D01*
X139424817Y-100303421D01*
X139429523Y-100220786D01*
X139418674Y-100138799D01*
X139392390Y-100059601D01*
X139350794Y-99985332D01*
X139340430Y-99970968D01*
X139283677Y-99908635D01*
X139218529Y-99859780D01*
X139147019Y-99824543D01*
X139071181Y-99803068D01*
X138993048Y-99795491D01*
X138914652Y-99801956D01*
X138838027Y-99822602D01*
X138765204Y-99857571D01*
X138698219Y-99907001D01*
X138679009Y-99925230D01*
X138623765Y-99989555D01*
X138584415Y-100056319D01*
X138559924Y-100127978D01*
X138549251Y-100206991D01*
X138548586Y-100234049D01*
X138556336Y-100320669D01*
X138578908Y-100400987D01*
X138614985Y-100473670D01*
X138663250Y-100537387D01*
X138442028Y-100758609D01*
X138376072Y-100691950D01*
X138247018Y-100731930D01*
X138202879Y-100745117D01*
X138164442Y-100755680D01*
X138134577Y-100762903D01*
X138116153Y-100766070D01*
X138111723Y-100765671D01*
X138101643Y-100750980D01*
X138087272Y-100724137D01*
X138070272Y-100688839D01*
X138052307Y-100648786D01*
X138035038Y-100607677D01*
X138020130Y-100569212D01*
X138009800Y-100538922D01*
X137998778Y-100498278D01*
X137988385Y-100451511D01*
X137979040Y-100401658D01*
X137971155Y-100351759D01*
X137965145Y-100304847D01*
X137961427Y-100263961D01*
X137960415Y-100232138D01*
X137962523Y-100212413D01*
X137964628Y-100208267D01*
X137974133Y-100204697D01*
X137997234Y-100197999D01*
X138031050Y-100188952D01*
X138072701Y-100178336D01*
X138102683Y-100170945D01*
X138235814Y-100138548D01*
X138247168Y-100082308D01*
X138256031Y-100044236D01*
X138267025Y-100004831D01*
X138274807Y-99981084D01*
X138291093Y-99936101D01*
X138188096Y-99838884D01*
X138085099Y-99741667D01*
X138115885Y-99692754D01*
X138194254Y-99583917D01*
X138285092Y-99486500D01*
X138388085Y-99400816D01*
G36*
X137110630Y-98296478D02*
X137115039Y-98293230D01*
X137181425Y-98254911D01*
X137251567Y-98232615D01*
X137323632Y-98226382D01*
X137395786Y-98236250D01*
X137466198Y-98262257D01*
X137505881Y-98284990D01*
X137562699Y-98331499D01*
X137606407Y-98386561D01*
X137636977Y-98447978D01*
X137654380Y-98513547D01*
X137658585Y-98581070D01*
X137649566Y-98648347D01*
X137627292Y-98713177D01*
X137591734Y-98773361D01*
X137542864Y-98826698D01*
X137513336Y-98850178D01*
X137450491Y-98884986D01*
X137382011Y-98905256D01*
X137310862Y-98911035D01*
X137240012Y-98902365D01*
X137172426Y-98879292D01*
X137114114Y-98844198D01*
X137059305Y-98792937D01*
X137018110Y-98734192D01*
X136990525Y-98670140D01*
X136976548Y-98602963D01*
X136976173Y-98534839D01*
X136989397Y-98467949D01*
X137016217Y-98404471D01*
X137056629Y-98346588D01*
X137110630Y-98296478D01*
X137110630Y-98296478D01*
G37*
X137110630Y-98296478D02*
X137115039Y-98293230D01*
X137181425Y-98254911D01*
X137251567Y-98232615D01*
X137323632Y-98226382D01*
X137395786Y-98236250D01*
X137466198Y-98262257D01*
X137505881Y-98284990D01*
X137562699Y-98331499D01*
X137606407Y-98386561D01*
X137636977Y-98447978D01*
X137654380Y-98513547D01*
X137658585Y-98581070D01*
X137649566Y-98648347D01*
X137627292Y-98713177D01*
X137591734Y-98773361D01*
X137542864Y-98826698D01*
X137513336Y-98850178D01*
X137450491Y-98884986D01*
X137382011Y-98905256D01*
X137310862Y-98911035D01*
X137240012Y-98902365D01*
X137172426Y-98879292D01*
X137114114Y-98844198D01*
X137059305Y-98792937D01*
X137018110Y-98734192D01*
X136990525Y-98670140D01*
X136976548Y-98602963D01*
X136976173Y-98534839D01*
X136989397Y-98467949D01*
X137016217Y-98404471D01*
X137056629Y-98346588D01*
X137110630Y-98296478D01*
G04 #@! TO.C,ISP*
D16*
X161774309Y-110097380D02*
X161774309Y-109097380D01*
X162202880Y-110049761D02*
X162345738Y-110097380D01*
X162583833Y-110097380D01*
X162679071Y-110049761D01*
X162726690Y-110002142D01*
X162774309Y-109906904D01*
X162774309Y-109811666D01*
X162726690Y-109716428D01*
X162679071Y-109668809D01*
X162583833Y-109621190D01*
X162393357Y-109573571D01*
X162298119Y-109525952D01*
X162250500Y-109478333D01*
X162202880Y-109383095D01*
X162202880Y-109287857D01*
X162250500Y-109192619D01*
X162298119Y-109145000D01*
X162393357Y-109097380D01*
X162631452Y-109097380D01*
X162774309Y-109145000D01*
X163202880Y-110097380D02*
X163202880Y-109097380D01*
X163583833Y-109097380D01*
X163679071Y-109145000D01*
X163726690Y-109192619D01*
X163774309Y-109287857D01*
X163774309Y-109430714D01*
X163726690Y-109525952D01*
X163679071Y-109573571D01*
X163583833Y-109621190D01*
X163202880Y-109621190D01*
G04 #@! TO.C,Y1*
X140698190Y-108507690D02*
X141174380Y-108507690D01*
X140174380Y-108841023D02*
X140698190Y-108507690D01*
X140174380Y-108174357D01*
X141174380Y-107317214D02*
X141174380Y-107888642D01*
X141174380Y-107602928D02*
X140174380Y-107602928D01*
X140317238Y-107698166D01*
X140412476Y-107793404D01*
X140460095Y-107888642D01*
G04 #@! TO.C,Q1*
X137644119Y-120427738D02*
X137596500Y-120522976D01*
X137501261Y-120618214D01*
X137358404Y-120761071D01*
X137310785Y-120856309D01*
X137310785Y-120951547D01*
X137548880Y-120903928D02*
X137501261Y-120999166D01*
X137406023Y-121094404D01*
X137215547Y-121142023D01*
X136882214Y-121142023D01*
X136691738Y-121094404D01*
X136596500Y-120999166D01*
X136548880Y-120903928D01*
X136548880Y-120713452D01*
X136596500Y-120618214D01*
X136691738Y-120522976D01*
X136882214Y-120475357D01*
X137215547Y-120475357D01*
X137406023Y-120522976D01*
X137501261Y-120618214D01*
X137548880Y-120713452D01*
X137548880Y-120903928D01*
X137548880Y-119522976D02*
X137548880Y-120094404D01*
X137548880Y-119808690D02*
X136548880Y-119808690D01*
X136691738Y-119903928D01*
X136786976Y-119999166D01*
X136834595Y-120094404D01*
G04 #@! TO.C,gnd*
X145251714Y-123398642D02*
X145868571Y-123398642D01*
X145941142Y-123434928D01*
X145977428Y-123471214D01*
X146013714Y-123543785D01*
X146013714Y-123652642D01*
X145977428Y-123725214D01*
X145723428Y-123398642D02*
X145759714Y-123471214D01*
X145759714Y-123616357D01*
X145723428Y-123688928D01*
X145687142Y-123725214D01*
X145614571Y-123761500D01*
X145396857Y-123761500D01*
X145324285Y-123725214D01*
X145288000Y-123688928D01*
X145251714Y-123616357D01*
X145251714Y-123471214D01*
X145288000Y-123398642D01*
X145251714Y-123035785D02*
X145759714Y-123035785D01*
X145324285Y-123035785D02*
X145288000Y-122999500D01*
X145251714Y-122926928D01*
X145251714Y-122818071D01*
X145288000Y-122745500D01*
X145360571Y-122709214D01*
X145759714Y-122709214D01*
X145759714Y-122019785D02*
X144997714Y-122019785D01*
X145723428Y-122019785D02*
X145759714Y-122092357D01*
X145759714Y-122237500D01*
X145723428Y-122310071D01*
X145687142Y-122346357D01*
X145614571Y-122382642D01*
X145396857Y-122382642D01*
X145324285Y-122346357D01*
X145288000Y-122310071D01*
X145251714Y-122237500D01*
X145251714Y-122092357D01*
X145288000Y-122019785D01*
G04 #@! TO.C,ptt*
X140815785Y-122899714D02*
X140815785Y-123661714D01*
X140815785Y-122936000D02*
X140888357Y-122899714D01*
X141033500Y-122899714D01*
X141106071Y-122936000D01*
X141142357Y-122972285D01*
X141178642Y-123044857D01*
X141178642Y-123262571D01*
X141142357Y-123335142D01*
X141106071Y-123371428D01*
X141033500Y-123407714D01*
X140888357Y-123407714D01*
X140815785Y-123371428D01*
X141396357Y-122899714D02*
X141686642Y-122899714D01*
X141505214Y-122645714D02*
X141505214Y-123298857D01*
X141541500Y-123371428D01*
X141614071Y-123407714D01*
X141686642Y-123407714D01*
X141831785Y-122899714D02*
X142122071Y-122899714D01*
X141940642Y-122645714D02*
X141940642Y-123298857D01*
X141976928Y-123371428D01*
X142049500Y-123407714D01*
X142122071Y-123407714D01*
G04 #@! TO.C,out*
X143274142Y-123598214D02*
X143201571Y-123561928D01*
X143165285Y-123525642D01*
X143129000Y-123453071D01*
X143129000Y-123235357D01*
X143165285Y-123162785D01*
X143201571Y-123126500D01*
X143274142Y-123090214D01*
X143383000Y-123090214D01*
X143455571Y-123126500D01*
X143491857Y-123162785D01*
X143528142Y-123235357D01*
X143528142Y-123453071D01*
X143491857Y-123525642D01*
X143455571Y-123561928D01*
X143383000Y-123598214D01*
X143274142Y-123598214D01*
X144181285Y-123090214D02*
X144181285Y-123598214D01*
X143854714Y-123090214D02*
X143854714Y-123489357D01*
X143891000Y-123561928D01*
X143963571Y-123598214D01*
X144072428Y-123598214D01*
X144145000Y-123561928D01*
X144181285Y-123525642D01*
X144435285Y-123090214D02*
X144725571Y-123090214D01*
X144544142Y-122836214D02*
X144544142Y-123489357D01*
X144580428Y-123561928D01*
X144653000Y-123598214D01*
X144725571Y-123598214D01*
G04 #@! TO.C,txl*
X158337357Y-122912214D02*
X158718309Y-122912214D01*
X158480214Y-122578880D02*
X158480214Y-123436023D01*
X158527833Y-123531261D01*
X158623071Y-123578880D01*
X158718309Y-123578880D01*
X158956404Y-123578880D02*
X159480214Y-122912214D01*
X158956404Y-122912214D02*
X159480214Y-123578880D01*
X160004023Y-123578880D02*
X159908785Y-123531261D01*
X159861166Y-123436023D01*
X159861166Y-122578880D01*
G04 #@! TO.C,g1*
X153852595Y-122912214D02*
X153852595Y-123721738D01*
X153804976Y-123816976D01*
X153757357Y-123864595D01*
X153662119Y-123912214D01*
X153519261Y-123912214D01*
X153424023Y-123864595D01*
X153852595Y-123531261D02*
X153757357Y-123578880D01*
X153566880Y-123578880D01*
X153471642Y-123531261D01*
X153424023Y-123483642D01*
X153376404Y-123388404D01*
X153376404Y-123102690D01*
X153424023Y-123007452D01*
X153471642Y-122959833D01*
X153566880Y-122912214D01*
X153757357Y-122912214D01*
X153852595Y-122959833D01*
X154852595Y-123578880D02*
X154281166Y-123578880D01*
X154566880Y-123578880D02*
X154566880Y-122578880D01*
X154471642Y-122721738D01*
X154376404Y-122816976D01*
X154281166Y-122864595D01*
G04 #@! TO.C,5v*
X161591642Y-122515380D02*
X161115452Y-122515380D01*
X161067833Y-122991571D01*
X161115452Y-122943952D01*
X161210690Y-122896333D01*
X161448785Y-122896333D01*
X161544023Y-122943952D01*
X161591642Y-122991571D01*
X161639261Y-123086809D01*
X161639261Y-123324904D01*
X161591642Y-123420142D01*
X161544023Y-123467761D01*
X161448785Y-123515380D01*
X161210690Y-123515380D01*
X161115452Y-123467761D01*
X161067833Y-123420142D01*
X161972595Y-122848714D02*
X162210690Y-123515380D01*
X162448785Y-122848714D01*
G04 #@! TO.C,sda*
X150721785Y-123561928D02*
X150794357Y-123598214D01*
X150939500Y-123598214D01*
X151012071Y-123561928D01*
X151048357Y-123489357D01*
X151048357Y-123453071D01*
X151012071Y-123380500D01*
X150939500Y-123344214D01*
X150830642Y-123344214D01*
X150758071Y-123307928D01*
X150721785Y-123235357D01*
X150721785Y-123199071D01*
X150758071Y-123126500D01*
X150830642Y-123090214D01*
X150939500Y-123090214D01*
X151012071Y-123126500D01*
X151701500Y-123598214D02*
X151701500Y-122836214D01*
X151701500Y-123561928D02*
X151628928Y-123598214D01*
X151483785Y-123598214D01*
X151411214Y-123561928D01*
X151374928Y-123525642D01*
X151338642Y-123453071D01*
X151338642Y-123235357D01*
X151374928Y-123162785D01*
X151411214Y-123126500D01*
X151483785Y-123090214D01*
X151628928Y-123090214D01*
X151701500Y-123126500D01*
X152390928Y-123598214D02*
X152390928Y-123199071D01*
X152354642Y-123126500D01*
X152282071Y-123090214D01*
X152136928Y-123090214D01*
X152064357Y-123126500D01*
X152390928Y-123561928D02*
X152318357Y-123598214D01*
X152136928Y-123598214D01*
X152064357Y-123561928D01*
X152028071Y-123489357D01*
X152028071Y-123416785D01*
X152064357Y-123344214D01*
X152136928Y-123307928D01*
X152318357Y-123307928D01*
X152390928Y-123271642D01*
G04 #@! TO.C,scl*
X149787428Y-123688928D02*
X149823714Y-123616357D01*
X149823714Y-123471214D01*
X149787428Y-123398642D01*
X149714857Y-123362357D01*
X149678571Y-123362357D01*
X149606000Y-123398642D01*
X149569714Y-123471214D01*
X149569714Y-123580071D01*
X149533428Y-123652642D01*
X149460857Y-123688928D01*
X149424571Y-123688928D01*
X149352000Y-123652642D01*
X149315714Y-123580071D01*
X149315714Y-123471214D01*
X149352000Y-123398642D01*
X149787428Y-122709214D02*
X149823714Y-122781785D01*
X149823714Y-122926928D01*
X149787428Y-122999500D01*
X149751142Y-123035785D01*
X149678571Y-123072071D01*
X149460857Y-123072071D01*
X149388285Y-123035785D01*
X149352000Y-122999500D01*
X149315714Y-122926928D01*
X149315714Y-122781785D01*
X149352000Y-122709214D01*
X149823714Y-122273785D02*
X149787428Y-122346357D01*
X149714857Y-122382642D01*
X149061714Y-122382642D01*
G04 #@! TO.C,rxl*
X155979904Y-123705880D02*
X155979904Y-123039214D01*
X155979904Y-123229690D02*
X156027523Y-123134452D01*
X156075142Y-123086833D01*
X156170380Y-123039214D01*
X156265619Y-123039214D01*
X156503714Y-123705880D02*
X157027523Y-123039214D01*
X156503714Y-123039214D02*
X157027523Y-123705880D01*
X157551333Y-123705880D02*
X157456095Y-123658261D01*
X157408476Y-123563023D01*
X157408476Y-122705880D01*
G04 #@! TO.C,RV1*
X142851261Y-116339880D02*
X142517928Y-115863690D01*
X142279833Y-116339880D02*
X142279833Y-115339880D01*
X142660785Y-115339880D01*
X142756023Y-115387500D01*
X142803642Y-115435119D01*
X142851261Y-115530357D01*
X142851261Y-115673214D01*
X142803642Y-115768452D01*
X142756023Y-115816071D01*
X142660785Y-115863690D01*
X142279833Y-115863690D01*
X143136976Y-115339880D02*
X143470309Y-116339880D01*
X143803642Y-115339880D01*
X144660785Y-116339880D02*
X144089357Y-116339880D01*
X144375071Y-116339880D02*
X144375071Y-115339880D01*
X144279833Y-115482738D01*
X144184595Y-115577976D01*
X144089357Y-115625595D01*
G04 #@! TO.C,R12*
X148915380Y-120975357D02*
X148439190Y-121308690D01*
X148915380Y-121546785D02*
X147915380Y-121546785D01*
X147915380Y-121165833D01*
X147963000Y-121070595D01*
X148010619Y-121022976D01*
X148105857Y-120975357D01*
X148248714Y-120975357D01*
X148343952Y-121022976D01*
X148391571Y-121070595D01*
X148439190Y-121165833D01*
X148439190Y-121546785D01*
X148915380Y-120022976D02*
X148915380Y-120594404D01*
X148915380Y-120308690D02*
X147915380Y-120308690D01*
X148058238Y-120403928D01*
X148153476Y-120499166D01*
X148201095Y-120594404D01*
X148010619Y-119642023D02*
X147963000Y-119594404D01*
X147915380Y-119499166D01*
X147915380Y-119261071D01*
X147963000Y-119165833D01*
X148010619Y-119118214D01*
X148105857Y-119070595D01*
X148201095Y-119070595D01*
X148343952Y-119118214D01*
X148915380Y-119689642D01*
X148915380Y-119070595D01*
G04 #@! TO.C,R10*
X137675880Y-115196857D02*
X137199690Y-115530190D01*
X137675880Y-115768285D02*
X136675880Y-115768285D01*
X136675880Y-115387333D01*
X136723500Y-115292095D01*
X136771119Y-115244476D01*
X136866357Y-115196857D01*
X137009214Y-115196857D01*
X137104452Y-115244476D01*
X137152071Y-115292095D01*
X137199690Y-115387333D01*
X137199690Y-115768285D01*
X137675880Y-114244476D02*
X137675880Y-114815904D01*
X137675880Y-114530190D02*
X136675880Y-114530190D01*
X136818738Y-114625428D01*
X136913976Y-114720666D01*
X136961595Y-114815904D01*
X136675880Y-113625428D02*
X136675880Y-113530190D01*
X136723500Y-113434952D01*
X136771119Y-113387333D01*
X136866357Y-113339714D01*
X137056833Y-113292095D01*
X137294928Y-113292095D01*
X137485404Y-113339714D01*
X137580642Y-113387333D01*
X137628261Y-113434952D01*
X137675880Y-113530190D01*
X137675880Y-113625428D01*
X137628261Y-113720666D01*
X137580642Y-113768285D01*
X137485404Y-113815904D01*
X137294928Y-113863523D01*
X137056833Y-113863523D01*
X136866357Y-113815904D01*
X136771119Y-113768285D01*
X136723500Y-113720666D01*
X136675880Y-113625428D01*
G04 #@! TO.C,tx*
X145899261Y-97258214D02*
X146280214Y-97258214D01*
X146042119Y-96924880D02*
X146042119Y-97782023D01*
X146089738Y-97877261D01*
X146184976Y-97924880D01*
X146280214Y-97924880D01*
X146518309Y-97924880D02*
X147042119Y-97258214D01*
X146518309Y-97258214D02*
X147042119Y-97924880D01*
G04 #@! TO.C,g2*
X143756095Y-97385214D02*
X143756095Y-98194738D01*
X143708476Y-98289976D01*
X143660857Y-98337595D01*
X143565619Y-98385214D01*
X143422761Y-98385214D01*
X143327523Y-98337595D01*
X143756095Y-98004261D02*
X143660857Y-98051880D01*
X143470380Y-98051880D01*
X143375142Y-98004261D01*
X143327523Y-97956642D01*
X143279904Y-97861404D01*
X143279904Y-97575690D01*
X143327523Y-97480452D01*
X143375142Y-97432833D01*
X143470380Y-97385214D01*
X143660857Y-97385214D01*
X143756095Y-97432833D01*
X144184666Y-97147119D02*
X144232285Y-97099500D01*
X144327523Y-97051880D01*
X144565619Y-97051880D01*
X144660857Y-97099500D01*
X144708476Y-97147119D01*
X144756095Y-97242357D01*
X144756095Y-97337595D01*
X144708476Y-97480452D01*
X144137047Y-98051880D01*
X144756095Y-98051880D01*
G04 #@! TO.C,ain*
X153868380Y-98266190D02*
X153344571Y-98266190D01*
X153249333Y-98313809D01*
X153201714Y-98409047D01*
X153201714Y-98599523D01*
X153249333Y-98694761D01*
X153820761Y-98266190D02*
X153868380Y-98361428D01*
X153868380Y-98599523D01*
X153820761Y-98694761D01*
X153725523Y-98742380D01*
X153630285Y-98742380D01*
X153535047Y-98694761D01*
X153487428Y-98599523D01*
X153487428Y-98361428D01*
X153439809Y-98266190D01*
X153868380Y-97790000D02*
X153201714Y-97790000D01*
X152868380Y-97790000D02*
X152916000Y-97837619D01*
X152963619Y-97790000D01*
X152916000Y-97742380D01*
X152868380Y-97790000D01*
X152963619Y-97790000D01*
X153201714Y-97313809D02*
X153868380Y-97313809D01*
X153296952Y-97313809D02*
X153249333Y-97266190D01*
X153201714Y-97170952D01*
X153201714Y-97028095D01*
X153249333Y-96932857D01*
X153344571Y-96885238D01*
X153868380Y-96885238D01*
G04 #@! TO.C,C1*
X153963642Y-99988666D02*
X154011261Y-100036285D01*
X154058880Y-100179142D01*
X154058880Y-100274380D01*
X154011261Y-100417238D01*
X153916023Y-100512476D01*
X153820785Y-100560095D01*
X153630309Y-100607714D01*
X153487452Y-100607714D01*
X153296976Y-100560095D01*
X153201738Y-100512476D01*
X153106500Y-100417238D01*
X153058880Y-100274380D01*
X153058880Y-100179142D01*
X153106500Y-100036285D01*
X153154119Y-99988666D01*
X154058880Y-99036285D02*
X154058880Y-99607714D01*
X154058880Y-99322000D02*
X153058880Y-99322000D01*
X153201738Y-99417238D01*
X153296976Y-99512476D01*
X153344595Y-99607714D01*
G04 #@! TO.C,C2*
X143139609Y-113228187D02*
X143072266Y-113228187D01*
X142937579Y-113160843D01*
X142870235Y-113093500D01*
X142802892Y-112958812D01*
X142802892Y-112824125D01*
X142836563Y-112723110D01*
X142937579Y-112554751D01*
X143038594Y-112453736D01*
X143206953Y-112352721D01*
X143307968Y-112319049D01*
X143442655Y-112319049D01*
X143577342Y-112386393D01*
X143644686Y-112453736D01*
X143712029Y-112588423D01*
X143712029Y-112655767D01*
X143981403Y-112925141D02*
X144048747Y-112925141D01*
X144149762Y-112958812D01*
X144318121Y-113127171D01*
X144351792Y-113228187D01*
X144351792Y-113295530D01*
X144318121Y-113396545D01*
X144250777Y-113463889D01*
X144116090Y-113531232D01*
X143307968Y-113531232D01*
X143745701Y-113968965D01*
G04 #@! TO.C,C3*
X148486833Y-100242642D02*
X148439214Y-100290261D01*
X148296357Y-100337880D01*
X148201119Y-100337880D01*
X148058261Y-100290261D01*
X147963023Y-100195023D01*
X147915404Y-100099785D01*
X147867785Y-99909309D01*
X147867785Y-99766452D01*
X147915404Y-99575976D01*
X147963023Y-99480738D01*
X148058261Y-99385500D01*
X148201119Y-99337880D01*
X148296357Y-99337880D01*
X148439214Y-99385500D01*
X148486833Y-99433119D01*
X148820166Y-99337880D02*
X149439214Y-99337880D01*
X149105880Y-99718833D01*
X149248738Y-99718833D01*
X149343976Y-99766452D01*
X149391595Y-99814071D01*
X149439214Y-99909309D01*
X149439214Y-100147404D01*
X149391595Y-100242642D01*
X149343976Y-100290261D01*
X149248738Y-100337880D01*
X148963023Y-100337880D01*
X148867785Y-100290261D01*
X148820166Y-100242642D01*
G04 #@! TO.C,C4*
X140422333Y-102973142D02*
X140374714Y-103020761D01*
X140231857Y-103068380D01*
X140136619Y-103068380D01*
X139993761Y-103020761D01*
X139898523Y-102925523D01*
X139850904Y-102830285D01*
X139803285Y-102639809D01*
X139803285Y-102496952D01*
X139850904Y-102306476D01*
X139898523Y-102211238D01*
X139993761Y-102116000D01*
X140136619Y-102068380D01*
X140231857Y-102068380D01*
X140374714Y-102116000D01*
X140422333Y-102163619D01*
X141279476Y-102401714D02*
X141279476Y-103068380D01*
X141041380Y-102020761D02*
X140803285Y-102735047D01*
X141422333Y-102735047D01*
G04 #@! TO.C,C5*
X142597142Y-111672666D02*
X142644761Y-111720285D01*
X142692380Y-111863142D01*
X142692380Y-111958380D01*
X142644761Y-112101238D01*
X142549523Y-112196476D01*
X142454285Y-112244095D01*
X142263809Y-112291714D01*
X142120952Y-112291714D01*
X141930476Y-112244095D01*
X141835238Y-112196476D01*
X141740000Y-112101238D01*
X141692380Y-111958380D01*
X141692380Y-111863142D01*
X141740000Y-111720285D01*
X141787619Y-111672666D01*
X141692380Y-110767904D02*
X141692380Y-111244095D01*
X142168571Y-111291714D01*
X142120952Y-111244095D01*
X142073333Y-111148857D01*
X142073333Y-110910761D01*
X142120952Y-110815523D01*
X142168571Y-110767904D01*
X142263809Y-110720285D01*
X142501904Y-110720285D01*
X142597142Y-110767904D01*
X142644761Y-110815523D01*
X142692380Y-110910761D01*
X142692380Y-111148857D01*
X142644761Y-111244095D01*
X142597142Y-111291714D01*
G04 #@! TO.C,C6*
X154090642Y-121324666D02*
X154138261Y-121372285D01*
X154185880Y-121515142D01*
X154185880Y-121610380D01*
X154138261Y-121753238D01*
X154043023Y-121848476D01*
X153947785Y-121896095D01*
X153757309Y-121943714D01*
X153614452Y-121943714D01*
X153423976Y-121896095D01*
X153328738Y-121848476D01*
X153233500Y-121753238D01*
X153185880Y-121610380D01*
X153185880Y-121515142D01*
X153233500Y-121372285D01*
X153281119Y-121324666D01*
X153185880Y-120467523D02*
X153185880Y-120658000D01*
X153233500Y-120753238D01*
X153281119Y-120800857D01*
X153423976Y-120896095D01*
X153614452Y-120943714D01*
X153995404Y-120943714D01*
X154090642Y-120896095D01*
X154138261Y-120848476D01*
X154185880Y-120753238D01*
X154185880Y-120562761D01*
X154138261Y-120467523D01*
X154090642Y-120419904D01*
X153995404Y-120372285D01*
X153757309Y-120372285D01*
X153662071Y-120419904D01*
X153614452Y-120467523D01*
X153566833Y-120562761D01*
X153566833Y-120753238D01*
X153614452Y-120848476D01*
X153662071Y-120896095D01*
X153757309Y-120943714D01*
G04 #@! TO.C,C7*
X150883833Y-120078642D02*
X150836214Y-120126261D01*
X150693357Y-120173880D01*
X150598119Y-120173880D01*
X150455261Y-120126261D01*
X150360023Y-120031023D01*
X150312404Y-119935785D01*
X150264785Y-119745309D01*
X150264785Y-119602452D01*
X150312404Y-119411976D01*
X150360023Y-119316738D01*
X150455261Y-119221500D01*
X150598119Y-119173880D01*
X150693357Y-119173880D01*
X150836214Y-119221500D01*
X150883833Y-119269119D01*
X151217166Y-119173880D02*
X151883833Y-119173880D01*
X151455261Y-120173880D01*
G04 #@! TO.C,C8*
X142851142Y-101385666D02*
X142898761Y-101433285D01*
X142946380Y-101576142D01*
X142946380Y-101671380D01*
X142898761Y-101814238D01*
X142803523Y-101909476D01*
X142708285Y-101957095D01*
X142517809Y-102004714D01*
X142374952Y-102004714D01*
X142184476Y-101957095D01*
X142089238Y-101909476D01*
X141994000Y-101814238D01*
X141946380Y-101671380D01*
X141946380Y-101576142D01*
X141994000Y-101433285D01*
X142041619Y-101385666D01*
X142374952Y-100814238D02*
X142327333Y-100909476D01*
X142279714Y-100957095D01*
X142184476Y-101004714D01*
X142136857Y-101004714D01*
X142041619Y-100957095D01*
X141994000Y-100909476D01*
X141946380Y-100814238D01*
X141946380Y-100623761D01*
X141994000Y-100528523D01*
X142041619Y-100480904D01*
X142136857Y-100433285D01*
X142184476Y-100433285D01*
X142279714Y-100480904D01*
X142327333Y-100528523D01*
X142374952Y-100623761D01*
X142374952Y-100814238D01*
X142422571Y-100909476D01*
X142470190Y-100957095D01*
X142565428Y-101004714D01*
X142755904Y-101004714D01*
X142851142Y-100957095D01*
X142898761Y-100909476D01*
X142946380Y-100814238D01*
X142946380Y-100623761D01*
X142898761Y-100528523D01*
X142851142Y-100480904D01*
X142755904Y-100433285D01*
X142565428Y-100433285D01*
X142470190Y-100480904D01*
X142422571Y-100528523D01*
X142374952Y-100623761D01*
G04 #@! TO.C,C9*
X146851642Y-103100166D02*
X146899261Y-103147785D01*
X146946880Y-103290642D01*
X146946880Y-103385880D01*
X146899261Y-103528738D01*
X146804023Y-103623976D01*
X146708785Y-103671595D01*
X146518309Y-103719214D01*
X146375452Y-103719214D01*
X146184976Y-103671595D01*
X146089738Y-103623976D01*
X145994500Y-103528738D01*
X145946880Y-103385880D01*
X145946880Y-103290642D01*
X145994500Y-103147785D01*
X146042119Y-103100166D01*
X146946880Y-102623976D02*
X146946880Y-102433500D01*
X146899261Y-102338261D01*
X146851642Y-102290642D01*
X146708785Y-102195404D01*
X146518309Y-102147785D01*
X146137357Y-102147785D01*
X146042119Y-102195404D01*
X145994500Y-102243023D01*
X145946880Y-102338261D01*
X145946880Y-102528738D01*
X145994500Y-102623976D01*
X146042119Y-102671595D01*
X146137357Y-102719214D01*
X146375452Y-102719214D01*
X146470690Y-102671595D01*
X146518309Y-102623976D01*
X146565928Y-102528738D01*
X146565928Y-102338261D01*
X146518309Y-102243023D01*
X146470690Y-102195404D01*
X146375452Y-102147785D01*
G04 #@! TO.C,D2*
X157849469Y-113554293D02*
X157142362Y-112847187D01*
X157310721Y-112678828D01*
X157445408Y-112611484D01*
X157580095Y-112611484D01*
X157681110Y-112645156D01*
X157849469Y-112746171D01*
X157950484Y-112847187D01*
X158051500Y-113015545D01*
X158085171Y-113116561D01*
X158085171Y-113251248D01*
X158017828Y-113385935D01*
X157849469Y-113554293D01*
X157883141Y-112241095D02*
X157883141Y-112173751D01*
X157916812Y-112072736D01*
X158085171Y-111904377D01*
X158186187Y-111870706D01*
X158253530Y-111870706D01*
X158354545Y-111904377D01*
X158421889Y-111971721D01*
X158489232Y-112106408D01*
X158489232Y-112914530D01*
X158926965Y-112476797D01*
G04 #@! TO.C,D3*
X159390746Y-112132860D02*
X158683639Y-111425754D01*
X158851998Y-111257395D01*
X158986685Y-111190051D01*
X159121372Y-111190051D01*
X159222387Y-111223723D01*
X159390746Y-111324738D01*
X159491761Y-111425754D01*
X159592777Y-111594112D01*
X159626448Y-111695128D01*
X159626448Y-111829815D01*
X159559105Y-111964502D01*
X159390746Y-112132860D01*
X159323402Y-110785990D02*
X159761135Y-110348257D01*
X159794807Y-110853334D01*
X159895822Y-110752318D01*
X159996838Y-110718647D01*
X160064181Y-110718647D01*
X160165196Y-110752318D01*
X160333555Y-110920677D01*
X160367227Y-111021692D01*
X160367227Y-111089036D01*
X160333555Y-111190051D01*
X160131525Y-111392082D01*
X160030509Y-111425754D01*
X159963166Y-111425754D01*
G04 #@! TO.C,R1*
X155203790Y-106361005D02*
X155304805Y-105788585D01*
X154799729Y-105956944D02*
X155506835Y-105249837D01*
X155776210Y-105519211D01*
X155809881Y-105620226D01*
X155809881Y-105687570D01*
X155776210Y-105788585D01*
X155675194Y-105889600D01*
X155574179Y-105923272D01*
X155506835Y-105923272D01*
X155405820Y-105889600D01*
X155136446Y-105620226D01*
X155877225Y-107034440D02*
X155473164Y-106630379D01*
X155675194Y-106832410D02*
X156382301Y-106125303D01*
X156213942Y-106158975D01*
X156079255Y-106158975D01*
X155978240Y-106125303D01*
G04 #@! TO.C,R2*
X153566833Y-103766880D02*
X153233500Y-103290690D01*
X152995404Y-103766880D02*
X152995404Y-102766880D01*
X153376357Y-102766880D01*
X153471595Y-102814500D01*
X153519214Y-102862119D01*
X153566833Y-102957357D01*
X153566833Y-103100214D01*
X153519214Y-103195452D01*
X153471595Y-103243071D01*
X153376357Y-103290690D01*
X152995404Y-103290690D01*
X153947785Y-102862119D02*
X153995404Y-102814500D01*
X154090642Y-102766880D01*
X154328738Y-102766880D01*
X154423976Y-102814500D01*
X154471595Y-102862119D01*
X154519214Y-102957357D01*
X154519214Y-103052595D01*
X154471595Y-103195452D01*
X153900166Y-103766880D01*
X154519214Y-103766880D01*
G04 #@! TO.C,R3*
X150518833Y-103639880D02*
X150185500Y-103163690D01*
X149947404Y-103639880D02*
X149947404Y-102639880D01*
X150328357Y-102639880D01*
X150423595Y-102687500D01*
X150471214Y-102735119D01*
X150518833Y-102830357D01*
X150518833Y-102973214D01*
X150471214Y-103068452D01*
X150423595Y-103116071D01*
X150328357Y-103163690D01*
X149947404Y-103163690D01*
X150852166Y-102639880D02*
X151471214Y-102639880D01*
X151137880Y-103020833D01*
X151280738Y-103020833D01*
X151375976Y-103068452D01*
X151423595Y-103116071D01*
X151471214Y-103211309D01*
X151471214Y-103449404D01*
X151423595Y-103544642D01*
X151375976Y-103592261D01*
X151280738Y-103639880D01*
X150995023Y-103639880D01*
X150899785Y-103592261D01*
X150852166Y-103544642D01*
G04 #@! TO.C,R4*
X160996333Y-121356380D02*
X160663000Y-120880190D01*
X160424904Y-121356380D02*
X160424904Y-120356380D01*
X160805857Y-120356380D01*
X160901095Y-120404000D01*
X160948714Y-120451619D01*
X160996333Y-120546857D01*
X160996333Y-120689714D01*
X160948714Y-120784952D01*
X160901095Y-120832571D01*
X160805857Y-120880190D01*
X160424904Y-120880190D01*
X161853476Y-120689714D02*
X161853476Y-121356380D01*
X161615380Y-120308761D02*
X161377285Y-121023047D01*
X161996333Y-121023047D01*
G04 #@! TO.C,R5*
X151390767Y-117232530D02*
X151491782Y-116660110D01*
X150986706Y-116828469D02*
X151693812Y-116121362D01*
X151963187Y-116390736D01*
X151996858Y-116491751D01*
X151996858Y-116559095D01*
X151963187Y-116660110D01*
X151862171Y-116761125D01*
X151761156Y-116794797D01*
X151693812Y-116794797D01*
X151592797Y-116761125D01*
X151323423Y-116491751D01*
X152737637Y-117165187D02*
X152400919Y-116828469D01*
X152030530Y-117131515D01*
X152097874Y-117131515D01*
X152198889Y-117165187D01*
X152367248Y-117333545D01*
X152400919Y-117434561D01*
X152400919Y-117501904D01*
X152367248Y-117602919D01*
X152198889Y-117771278D01*
X152097874Y-117804950D01*
X152030530Y-117804950D01*
X151929515Y-117771278D01*
X151761156Y-117602919D01*
X151727484Y-117501904D01*
X151727484Y-117434561D01*
G04 #@! TO.C,R6*
X152660767Y-115962530D02*
X152761782Y-115390110D01*
X152256706Y-115558469D02*
X152963812Y-114851362D01*
X153233187Y-115120736D01*
X153266858Y-115221751D01*
X153266858Y-115289095D01*
X153233187Y-115390110D01*
X153132171Y-115491125D01*
X153031156Y-115524797D01*
X152963812Y-115524797D01*
X152862797Y-115491125D01*
X152593423Y-115221751D01*
X153973965Y-115861515D02*
X153839278Y-115726828D01*
X153738263Y-115693156D01*
X153670919Y-115693156D01*
X153502561Y-115726828D01*
X153334202Y-115827843D01*
X153064828Y-116097217D01*
X153031156Y-116198232D01*
X153031156Y-116265576D01*
X153064828Y-116366591D01*
X153199515Y-116501278D01*
X153300530Y-116534950D01*
X153367874Y-116534950D01*
X153468889Y-116501278D01*
X153637248Y-116332919D01*
X153670919Y-116231904D01*
X153670919Y-116164561D01*
X153637248Y-116063545D01*
X153502561Y-115928858D01*
X153401545Y-115895187D01*
X153334202Y-115895187D01*
X153233187Y-115928858D01*
G04 #@! TO.C,R7*
X153930767Y-114692530D02*
X154031782Y-114120110D01*
X153526706Y-114288469D02*
X154233812Y-113581362D01*
X154503187Y-113850736D01*
X154536858Y-113951751D01*
X154536858Y-114019095D01*
X154503187Y-114120110D01*
X154402171Y-114221125D01*
X154301156Y-114254797D01*
X154233812Y-114254797D01*
X154132797Y-114221125D01*
X153863423Y-113951751D01*
X154873576Y-114221125D02*
X155344980Y-114692530D01*
X154334828Y-115096591D01*
G04 #@! TO.C,R8*
X155200766Y-113422530D02*
X155301781Y-112850110D01*
X154796705Y-113018469D02*
X155503811Y-112311362D01*
X155773186Y-112580736D01*
X155806857Y-112681751D01*
X155806857Y-112749095D01*
X155773186Y-112850110D01*
X155672170Y-112951125D01*
X155571155Y-112984797D01*
X155503811Y-112984797D01*
X155402796Y-112951125D01*
X155133422Y-112681751D01*
X156008888Y-113422530D02*
X155975216Y-113321515D01*
X155975216Y-113254171D01*
X156008888Y-113153156D01*
X156042560Y-113119484D01*
X156143575Y-113085812D01*
X156210918Y-113085812D01*
X156311934Y-113119484D01*
X156446621Y-113254171D01*
X156480292Y-113355187D01*
X156480292Y-113422530D01*
X156446621Y-113523545D01*
X156412949Y-113557217D01*
X156311934Y-113590889D01*
X156244590Y-113590889D01*
X156143575Y-113557217D01*
X156008888Y-113422530D01*
X155907873Y-113388858D01*
X155840529Y-113388858D01*
X155739514Y-113422530D01*
X155604827Y-113557217D01*
X155571155Y-113658232D01*
X155571155Y-113725576D01*
X155604827Y-113826591D01*
X155739514Y-113961278D01*
X155840529Y-113994950D01*
X155907873Y-113994950D01*
X156008888Y-113961278D01*
X156143575Y-113826591D01*
X156177247Y-113725576D01*
X156177247Y-113658232D01*
X156143575Y-113557217D01*
G04 #@! TO.C,R9*
X162710833Y-121353880D02*
X162377500Y-120877690D01*
X162139404Y-121353880D02*
X162139404Y-120353880D01*
X162520357Y-120353880D01*
X162615595Y-120401500D01*
X162663214Y-120449119D01*
X162710833Y-120544357D01*
X162710833Y-120687214D01*
X162663214Y-120782452D01*
X162615595Y-120830071D01*
X162520357Y-120877690D01*
X162139404Y-120877690D01*
X163187023Y-121353880D02*
X163377500Y-121353880D01*
X163472738Y-121306261D01*
X163520357Y-121258642D01*
X163615595Y-121115785D01*
X163663214Y-120925309D01*
X163663214Y-120544357D01*
X163615595Y-120449119D01*
X163567976Y-120401500D01*
X163472738Y-120353880D01*
X163282261Y-120353880D01*
X163187023Y-120401500D01*
X163139404Y-120449119D01*
X163091785Y-120544357D01*
X163091785Y-120782452D01*
X163139404Y-120877690D01*
X163187023Y-120925309D01*
X163282261Y-120972928D01*
X163472738Y-120972928D01*
X163567976Y-120925309D01*
X163615595Y-120877690D01*
X163663214Y-120782452D01*
G04 #@! TO.C,R11*
X158805812Y-121170450D02*
X158233393Y-121069435D01*
X158401751Y-121574511D02*
X157694645Y-120867404D01*
X157964019Y-120598030D01*
X158065034Y-120564358D01*
X158132377Y-120564358D01*
X158233393Y-120598030D01*
X158334408Y-120699045D01*
X158368080Y-120800061D01*
X158368080Y-120867404D01*
X158334408Y-120968419D01*
X158065034Y-121237793D01*
X159479248Y-120497015D02*
X159075187Y-120901076D01*
X159277217Y-120699045D02*
X158570110Y-119991938D01*
X158603782Y-120160297D01*
X158603782Y-120294984D01*
X158570110Y-120396000D01*
X160152683Y-119823580D02*
X159748622Y-120227641D01*
X159950652Y-120025610D02*
X159243545Y-119318503D01*
X159277217Y-119486862D01*
X159277217Y-119621549D01*
X159243545Y-119722564D01*
G04 #@! TO.C,R13*
X142672049Y-105338813D02*
X142773064Y-104766394D01*
X142267988Y-104934752D02*
X142975095Y-104227646D01*
X143244469Y-104497020D01*
X143278141Y-104598035D01*
X143278141Y-104665378D01*
X143244469Y-104766394D01*
X143143454Y-104867409D01*
X143042438Y-104901081D01*
X142975095Y-104901081D01*
X142874080Y-104867409D01*
X142604706Y-104598035D01*
X143345484Y-106012249D02*
X142941423Y-105608188D01*
X143143454Y-105810218D02*
X143850561Y-105103111D01*
X143682202Y-105136783D01*
X143547515Y-105136783D01*
X143446500Y-105103111D01*
X144288293Y-105540844D02*
X144726026Y-105978577D01*
X144220950Y-106012249D01*
X144321965Y-106113264D01*
X144355637Y-106214279D01*
X144355637Y-106281623D01*
X144321965Y-106382638D01*
X144153606Y-106550997D01*
X144052591Y-106584668D01*
X143985248Y-106584668D01*
X143884232Y-106550997D01*
X143682202Y-106348966D01*
X143648530Y-106247951D01*
X143648530Y-106180607D01*
G04 #@! TO.C,U1*
X146965526Y-104164522D02*
X147537946Y-104736942D01*
X147638961Y-104770614D01*
X147706305Y-104770614D01*
X147807320Y-104736942D01*
X147942007Y-104602255D01*
X147975679Y-104501240D01*
X147975679Y-104433896D01*
X147942007Y-104332881D01*
X147369587Y-103760461D01*
X148783801Y-103760461D02*
X148379740Y-104164522D01*
X148581770Y-103962492D02*
X147874664Y-103255385D01*
X147908335Y-103423744D01*
X147908335Y-103558431D01*
X147874664Y-103659446D01*
G04 #@! TO.C,osi*
X159051714Y-98051880D02*
X158956476Y-98004261D01*
X158908857Y-97956642D01*
X158861238Y-97861404D01*
X158861238Y-97575690D01*
X158908857Y-97480452D01*
X158956476Y-97432833D01*
X159051714Y-97385214D01*
X159194571Y-97385214D01*
X159289809Y-97432833D01*
X159337428Y-97480452D01*
X159385047Y-97575690D01*
X159385047Y-97861404D01*
X159337428Y-97956642D01*
X159289809Y-98004261D01*
X159194571Y-98051880D01*
X159051714Y-98051880D01*
X159766000Y-98004261D02*
X159861238Y-98051880D01*
X160051714Y-98051880D01*
X160146952Y-98004261D01*
X160194571Y-97909023D01*
X160194571Y-97861404D01*
X160146952Y-97766166D01*
X160051714Y-97718547D01*
X159908857Y-97718547D01*
X159813619Y-97670928D01*
X159766000Y-97575690D01*
X159766000Y-97528071D01*
X159813619Y-97432833D01*
X159908857Y-97385214D01*
X160051714Y-97385214D01*
X160146952Y-97432833D01*
X160623142Y-98051880D02*
X160623142Y-97385214D01*
X160623142Y-97051880D02*
X160575523Y-97099500D01*
X160623142Y-97147119D01*
X160670761Y-97099500D01*
X160623142Y-97051880D01*
X160623142Y-97147119D01*
G04 #@! TO.C,sck*
X156051380Y-98004261D02*
X156146619Y-98051880D01*
X156337095Y-98051880D01*
X156432333Y-98004261D01*
X156479952Y-97909023D01*
X156479952Y-97861404D01*
X156432333Y-97766166D01*
X156337095Y-97718547D01*
X156194238Y-97718547D01*
X156099000Y-97670928D01*
X156051380Y-97575690D01*
X156051380Y-97528071D01*
X156099000Y-97432833D01*
X156194238Y-97385214D01*
X156337095Y-97385214D01*
X156432333Y-97432833D01*
X157337095Y-98004261D02*
X157241857Y-98051880D01*
X157051380Y-98051880D01*
X156956142Y-98004261D01*
X156908523Y-97956642D01*
X156860904Y-97861404D01*
X156860904Y-97575690D01*
X156908523Y-97480452D01*
X156956142Y-97432833D01*
X157051380Y-97385214D01*
X157241857Y-97385214D01*
X157337095Y-97432833D01*
X157765666Y-98051880D02*
X157765666Y-97051880D01*
X157860904Y-97670928D02*
X158146619Y-98051880D01*
X158146619Y-97385214D02*
X157765666Y-97766166D01*
G04 #@! TO.C,R14*
X158948380Y-101290357D02*
X158472190Y-101623690D01*
X158948380Y-101861785D02*
X157948380Y-101861785D01*
X157948380Y-101480833D01*
X157996000Y-101385595D01*
X158043619Y-101337976D01*
X158138857Y-101290357D01*
X158281714Y-101290357D01*
X158376952Y-101337976D01*
X158424571Y-101385595D01*
X158472190Y-101480833D01*
X158472190Y-101861785D01*
X158948380Y-100337976D02*
X158948380Y-100909404D01*
X158948380Y-100623690D02*
X157948380Y-100623690D01*
X158091238Y-100718928D01*
X158186476Y-100814166D01*
X158234095Y-100909404D01*
X158281714Y-99480833D02*
X158948380Y-99480833D01*
X157900761Y-99718928D02*
X158615047Y-99957023D01*
X158615047Y-99337976D01*
G04 #@! TO.C,iso*
X161448857Y-98051880D02*
X161448857Y-97385214D01*
X161448857Y-97051880D02*
X161401238Y-97099500D01*
X161448857Y-97147119D01*
X161496476Y-97099500D01*
X161448857Y-97051880D01*
X161448857Y-97147119D01*
X161877428Y-98004261D02*
X161972666Y-98051880D01*
X162163142Y-98051880D01*
X162258380Y-98004261D01*
X162306000Y-97909023D01*
X162306000Y-97861404D01*
X162258380Y-97766166D01*
X162163142Y-97718547D01*
X162020285Y-97718547D01*
X161925047Y-97670928D01*
X161877428Y-97575690D01*
X161877428Y-97528071D01*
X161925047Y-97432833D01*
X162020285Y-97385214D01*
X162163142Y-97385214D01*
X162258380Y-97432833D01*
X162877428Y-98051880D02*
X162782190Y-98004261D01*
X162734571Y-97956642D01*
X162686952Y-97861404D01*
X162686952Y-97575690D01*
X162734571Y-97480452D01*
X162782190Y-97432833D01*
X162877428Y-97385214D01*
X163020285Y-97385214D01*
X163115523Y-97432833D01*
X163163142Y-97480452D01*
X163210761Y-97575690D01*
X163210761Y-97861404D01*
X163163142Y-97956642D01*
X163115523Y-98004261D01*
X163020285Y-98051880D01*
X162877428Y-98051880D01*
G04 #@! TO.C,rx*
X148558309Y-97861380D02*
X148558309Y-97194714D01*
X148558309Y-97385190D02*
X148605928Y-97289952D01*
X148653547Y-97242333D01*
X148748785Y-97194714D01*
X148844023Y-97194714D01*
X149082119Y-97861380D02*
X149605928Y-97194714D01*
X149082119Y-97194714D02*
X149605928Y-97861380D01*
G04 #@! TD*
M02*
