G04 #@! TF.GenerationSoftware,KiCad,Pcbnew,5.0.2-bee76a0~70~ubuntu16.04.1*
G04 #@! TF.CreationDate,2019-03-15T16:40:36-06:00*
G04 #@! TF.ProjectId,AX25_TNC_modemmodule,41583235-5f54-44e4-935f-6d6f64656d6d,rev?*
G04 #@! TF.SameCoordinates,Original*
G04 #@! TF.FileFunction,Soldermask,Bot*
G04 #@! TF.FilePolarity,Negative*
%FSLAX46Y46*%
G04 Gerber Fmt 4.6, Leading zero omitted, Abs format (unit mm)*
G04 Created by KiCad (PCBNEW 5.0.2-bee76a0~70~ubuntu16.04.1) date Fri 15 Mar 2019 04:40:36 PM MDT*
%MOMM*%
%LPD*%
G01*
G04 APERTURE LIST*
%ADD10C,0.100000*%
G04 APERTURE END LIST*
D10*
G36*
X157467500Y-126162000D02*
X155841500Y-126162000D01*
X155841500Y-124028000D01*
X157467500Y-124028000D01*
X157467500Y-126162000D01*
X157467500Y-126162000D01*
G37*
G36*
X162547500Y-126098500D02*
X160921500Y-126098500D01*
X160921500Y-123964500D01*
X162547500Y-123964500D01*
X162547500Y-126098500D01*
X162547500Y-126098500D01*
G37*
G36*
X154927500Y-126098500D02*
X153301500Y-126098500D01*
X153301500Y-123964500D01*
X154927500Y-123964500D01*
X154927500Y-126098500D01*
X154927500Y-126098500D01*
G37*
G36*
X160007500Y-126098500D02*
X158381500Y-126098500D01*
X158381500Y-123964500D01*
X160007500Y-123964500D01*
X160007500Y-126098500D01*
X160007500Y-126098500D01*
G37*
G36*
X144767500Y-126098500D02*
X143141500Y-126098500D01*
X143141500Y-123964500D01*
X144767500Y-123964500D01*
X144767500Y-126098500D01*
X144767500Y-126098500D01*
G37*
G36*
X142227500Y-126098500D02*
X140601500Y-126098500D01*
X140601500Y-123964500D01*
X142227500Y-123964500D01*
X142227500Y-126098500D01*
X142227500Y-126098500D01*
G37*
G36*
X147307500Y-126098500D02*
X145681500Y-126098500D01*
X145681500Y-123964500D01*
X147307500Y-123964500D01*
X147307500Y-126098500D01*
X147307500Y-126098500D01*
G37*
G36*
X152387500Y-126098500D02*
X150761500Y-126098500D01*
X150761500Y-123964500D01*
X152387500Y-123964500D01*
X152387500Y-126098500D01*
X152387500Y-126098500D01*
G37*
G36*
X149847500Y-126098500D02*
X148221500Y-126098500D01*
X148221500Y-123964500D01*
X149847500Y-123964500D01*
X149847500Y-126098500D01*
X149847500Y-126098500D01*
G37*
G36*
X144767500Y-96634500D02*
X143141500Y-96634500D01*
X143141500Y-94500500D01*
X144767500Y-94500500D01*
X144767500Y-96634500D01*
X144767500Y-96634500D01*
G37*
G36*
X142227500Y-96634500D02*
X140601500Y-96634500D01*
X140601500Y-94500500D01*
X142227500Y-94500500D01*
X142227500Y-96634500D01*
X142227500Y-96634500D01*
G37*
G36*
X152451000Y-96634500D02*
X150825000Y-96634500D01*
X150825000Y-94500500D01*
X152451000Y-94500500D01*
X152451000Y-96634500D01*
X152451000Y-96634500D01*
G37*
G36*
X162547500Y-96634500D02*
X160921500Y-96634500D01*
X160921500Y-94500500D01*
X162547500Y-94500500D01*
X162547500Y-96634500D01*
X162547500Y-96634500D01*
G37*
G36*
X149847500Y-96634500D02*
X148221500Y-96634500D01*
X148221500Y-94500500D01*
X149847500Y-94500500D01*
X149847500Y-96634500D01*
X149847500Y-96634500D01*
G37*
G36*
X147307500Y-96634500D02*
X145681500Y-96634500D01*
X145681500Y-94500500D01*
X147307500Y-94500500D01*
X147307500Y-96634500D01*
X147307500Y-96634500D01*
G37*
G36*
X154927500Y-96634500D02*
X153301500Y-96634500D01*
X153301500Y-94500500D01*
X154927500Y-94500500D01*
X154927500Y-96634500D01*
X154927500Y-96634500D01*
G37*
G36*
X160007500Y-96634500D02*
X158381500Y-96634500D01*
X158381500Y-94500500D01*
X160007500Y-94500500D01*
X160007500Y-96634500D01*
X160007500Y-96634500D01*
G37*
G36*
X157467500Y-96634500D02*
X155841500Y-96634500D01*
X155841500Y-94500500D01*
X157467500Y-94500500D01*
X157467500Y-96634500D01*
X157467500Y-96634500D01*
G37*
M02*
