G04 #@! TF.GenerationSoftware,KiCad,Pcbnew,5.0.2-bee76a0~70~ubuntu16.04.1*
G04 #@! TF.CreationDate,2019-03-15T16:40:36-06:00*
G04 #@! TF.ProjectId,AX25_TNC_modemmodule,41583235-5f54-44e4-935f-6d6f64656d6d,rev?*
G04 #@! TF.SameCoordinates,Original*
G04 #@! TF.FileFunction,Soldermask,Top*
G04 #@! TF.FilePolarity,Negative*
%FSLAX46Y46*%
G04 Gerber Fmt 4.6, Leading zero omitted, Abs format (unit mm)*
G04 Created by KiCad (PCBNEW 5.0.2-bee76a0~70~ubuntu16.04.1) date Fri 15 Mar 2019 04:40:36 PM MDT*
%MOMM*%
%LPD*%
G01*
G04 APERTURE LIST*
%ADD10C,0.100000*%
G04 APERTURE END LIST*
D10*
G36*
X157467500Y-126162000D02*
X155841500Y-126162000D01*
X155841500Y-124028000D01*
X157467500Y-124028000D01*
X157467500Y-126162000D01*
X157467500Y-126162000D01*
G37*
G36*
X162547500Y-126098500D02*
X160921500Y-126098500D01*
X160921500Y-123964500D01*
X162547500Y-123964500D01*
X162547500Y-126098500D01*
X162547500Y-126098500D01*
G37*
G36*
X147307500Y-126098500D02*
X145681500Y-126098500D01*
X145681500Y-123964500D01*
X147307500Y-123964500D01*
X147307500Y-126098500D01*
X147307500Y-126098500D01*
G37*
G36*
X142227500Y-126098500D02*
X140601500Y-126098500D01*
X140601500Y-123964500D01*
X142227500Y-123964500D01*
X142227500Y-126098500D01*
X142227500Y-126098500D01*
G37*
G36*
X144767500Y-126098500D02*
X143141500Y-126098500D01*
X143141500Y-123964500D01*
X144767500Y-123964500D01*
X144767500Y-126098500D01*
X144767500Y-126098500D01*
G37*
G36*
X154927500Y-126098500D02*
X153301500Y-126098500D01*
X153301500Y-123964500D01*
X154927500Y-123964500D01*
X154927500Y-126098500D01*
X154927500Y-126098500D01*
G37*
G36*
X160007500Y-126098500D02*
X158381500Y-126098500D01*
X158381500Y-123964500D01*
X160007500Y-123964500D01*
X160007500Y-126098500D01*
X160007500Y-126098500D01*
G37*
G36*
X149847500Y-126098500D02*
X148221500Y-126098500D01*
X148221500Y-123964500D01*
X149847500Y-123964500D01*
X149847500Y-126098500D01*
X149847500Y-126098500D01*
G37*
G36*
X152387500Y-126098500D02*
X150761500Y-126098500D01*
X150761500Y-123964500D01*
X152387500Y-123964500D01*
X152387500Y-126098500D01*
X152387500Y-126098500D01*
G37*
G36*
X148859000Y-123319500D02*
X148057000Y-123319500D01*
X148057000Y-121917500D01*
X148859000Y-121917500D01*
X148859000Y-123319500D01*
X148859000Y-123319500D01*
G37*
G36*
X146959000Y-123319500D02*
X146157000Y-123319500D01*
X146157000Y-121917500D01*
X146959000Y-121917500D01*
X146959000Y-123319500D01*
X146959000Y-123319500D01*
G37*
G36*
X156107907Y-121581102D02*
X155328674Y-122360335D01*
X154372665Y-121404326D01*
X155151898Y-120625093D01*
X156107907Y-121581102D01*
X156107907Y-121581102D01*
G37*
G36*
X152601500Y-121897500D02*
X151499500Y-121897500D01*
X151499500Y-120545500D01*
X152601500Y-120545500D01*
X152601500Y-121897500D01*
X152601500Y-121897500D01*
G37*
G36*
X150601500Y-121897500D02*
X149499500Y-121897500D01*
X149499500Y-120545500D01*
X150601500Y-120545500D01*
X150601500Y-121897500D01*
X150601500Y-121897500D01*
G37*
G36*
X143608500Y-120984000D02*
X141506500Y-120984000D01*
X141506500Y-119582000D01*
X143608500Y-119582000D01*
X143608500Y-120984000D01*
X143608500Y-120984000D01*
G37*
G36*
X157522121Y-120166888D02*
X156742888Y-120946121D01*
X155786879Y-119990112D01*
X156566112Y-119210879D01*
X157522121Y-120166888D01*
X157522121Y-120166888D01*
G37*
G36*
X155085209Y-119230476D02*
X154093845Y-120221840D01*
X153526745Y-119654740D01*
X154518109Y-118663376D01*
X155085209Y-119230476D01*
X155085209Y-119230476D01*
G37*
G36*
X147608500Y-120184000D02*
X145506500Y-120184000D01*
X145506500Y-118082000D01*
X147608500Y-118082000D01*
X147608500Y-120184000D01*
X147608500Y-120184000D01*
G37*
G36*
X158376230Y-119411634D02*
X157809130Y-119978734D01*
X156817766Y-118987370D01*
X157384866Y-118420270D01*
X158376230Y-119411634D01*
X158376230Y-119411634D01*
G37*
G36*
X139137500Y-119976000D02*
X138235500Y-119976000D01*
X138235500Y-118974000D01*
X139137500Y-118974000D01*
X139137500Y-119976000D01*
X139137500Y-119976000D01*
G37*
G36*
X161610000Y-119969000D02*
X160208000Y-119969000D01*
X160208000Y-119167000D01*
X161610000Y-119167000D01*
X161610000Y-119969000D01*
X161610000Y-119969000D01*
G37*
G36*
X163324500Y-119966500D02*
X161922500Y-119966500D01*
X161922500Y-119164500D01*
X163324500Y-119164500D01*
X163324500Y-119966500D01*
X163324500Y-119966500D01*
G37*
G36*
X153741707Y-117886974D02*
X152750343Y-118878338D01*
X152183243Y-118311238D01*
X153174607Y-117319874D01*
X153741707Y-117886974D01*
X153741707Y-117886974D01*
G37*
G36*
X156432247Y-117883437D02*
X155440883Y-118874801D01*
X154873783Y-118307701D01*
X155865147Y-117316337D01*
X156432247Y-117883437D01*
X156432247Y-117883437D01*
G37*
G36*
X143608500Y-118684000D02*
X141506500Y-118684000D01*
X141506500Y-117282000D01*
X143608500Y-117282000D01*
X143608500Y-118684000D01*
X143608500Y-118684000D01*
G37*
G36*
X159719732Y-118068132D02*
X159152632Y-118635232D01*
X158161268Y-117643868D01*
X158728368Y-117076768D01*
X159719732Y-118068132D01*
X159719732Y-118068132D01*
G37*
G36*
X161610000Y-118069000D02*
X160208000Y-118069000D01*
X160208000Y-117267000D01*
X161610000Y-117267000D01*
X161610000Y-118069000D01*
X161610000Y-118069000D01*
G37*
G36*
X163324500Y-118066500D02*
X161922500Y-118066500D01*
X161922500Y-117264500D01*
X163324500Y-117264500D01*
X163324500Y-118066500D01*
X163324500Y-118066500D01*
G37*
G36*
X140087500Y-117976000D02*
X139185500Y-117976000D01*
X139185500Y-116974000D01*
X140087500Y-116974000D01*
X140087500Y-117976000D01*
X140087500Y-117976000D01*
G37*
G36*
X138187500Y-117976000D02*
X137285500Y-117976000D01*
X137285500Y-116974000D01*
X138187500Y-116974000D01*
X138187500Y-117976000D01*
X138187500Y-117976000D01*
G37*
G36*
X155088745Y-116539935D02*
X154097381Y-117531299D01*
X153530281Y-116964199D01*
X154521645Y-115972835D01*
X155088745Y-116539935D01*
X155088745Y-116539935D01*
G37*
G36*
X157779286Y-116536399D02*
X156787922Y-117527763D01*
X156220822Y-116960663D01*
X157212186Y-115969299D01*
X157779286Y-116536399D01*
X157779286Y-116536399D01*
G37*
G36*
X147044621Y-115545112D02*
X146088612Y-116501121D01*
X145309379Y-115721888D01*
X146265388Y-114765879D01*
X147044621Y-115545112D01*
X147044621Y-115545112D01*
G37*
G36*
X156435784Y-115192897D02*
X155444420Y-116184261D01*
X154877320Y-115617161D01*
X155868684Y-114625797D01*
X156435784Y-115192897D01*
X156435784Y-115192897D01*
G37*
G36*
X159126324Y-115189360D02*
X158134960Y-116180724D01*
X157567860Y-115613624D01*
X158559224Y-114622260D01*
X159126324Y-115189360D01*
X159126324Y-115189360D01*
G37*
G36*
X161670788Y-115157134D02*
X160750134Y-116077788D01*
X159829480Y-115157134D01*
X160750134Y-114236480D01*
X161670788Y-115157134D01*
X161670788Y-115157134D01*
G37*
G36*
X146586843Y-110331348D02*
X146586849Y-110331353D01*
X147224648Y-110969152D01*
X147224653Y-110969158D01*
X149415270Y-113159775D01*
X149415276Y-113159780D01*
X150053075Y-113797579D01*
X150053080Y-113797585D01*
X150530377Y-114274882D01*
X149326881Y-115478378D01*
X148777465Y-114928962D01*
X148777460Y-114928956D01*
X148283899Y-114435395D01*
X148283893Y-114435390D01*
X145949038Y-112100535D01*
X145949033Y-112100529D01*
X145455472Y-111606968D01*
X145455466Y-111606963D01*
X144906049Y-111057546D01*
X146109545Y-109854050D01*
X146586843Y-110331348D01*
X146586843Y-110331348D01*
G37*
G36*
X156540785Y-111057546D02*
X152119953Y-115478378D01*
X150916457Y-114274882D01*
X151377491Y-113813848D01*
X151393755Y-113797585D01*
X151393764Y-113797574D01*
X152031554Y-113159784D01*
X152031565Y-113159775D01*
X152047828Y-113143511D01*
X154205918Y-110985421D01*
X154222182Y-110969158D01*
X154222191Y-110969147D01*
X154859981Y-110331357D01*
X154859992Y-110331348D01*
X154876255Y-110315084D01*
X155337289Y-109854050D01*
X156540785Y-111057546D01*
X156540785Y-111057546D01*
G37*
G36*
X145630407Y-114130898D02*
X144674398Y-115086907D01*
X143895165Y-114307674D01*
X144851174Y-113351665D01*
X145630407Y-114130898D01*
X145630407Y-114130898D01*
G37*
G36*
X162877288Y-114014134D02*
X161956634Y-114934788D01*
X161035980Y-114014134D01*
X161956634Y-113093480D01*
X162877288Y-114014134D01*
X162877288Y-114014134D01*
G37*
G36*
X157782822Y-113845858D02*
X156791458Y-114837222D01*
X156224358Y-114270122D01*
X157215722Y-113278758D01*
X157782822Y-113845858D01*
X157782822Y-113845858D01*
G37*
G36*
X160115154Y-113601500D02*
X159194500Y-114522154D01*
X158273846Y-113601500D01*
X159194500Y-112680846D01*
X160115154Y-113601500D01*
X160115154Y-113601500D01*
G37*
G36*
X139084999Y-114493000D02*
X138282999Y-114493000D01*
X138282999Y-113091000D01*
X139084999Y-113091000D01*
X139084999Y-114493000D01*
X139084999Y-114493000D01*
G37*
G36*
X140984999Y-114493000D02*
X140182999Y-114493000D01*
X140182999Y-113091000D01*
X140984999Y-113091000D01*
X140984999Y-114493000D01*
X140984999Y-114493000D01*
G37*
G36*
X161321654Y-112458500D02*
X160401000Y-113379154D01*
X159480346Y-112458500D01*
X160401000Y-111537846D01*
X161321654Y-112458500D01*
X161321654Y-112458500D01*
G37*
G36*
X141328500Y-112660000D02*
X139976500Y-112660000D01*
X139976500Y-111558000D01*
X141328500Y-111558000D01*
X141328500Y-112660000D01*
X141328500Y-112660000D01*
G37*
G36*
X139173000Y-112507500D02*
X136671000Y-112507500D01*
X136671000Y-109080500D01*
X139173000Y-109080500D01*
X139173000Y-112507500D01*
X139173000Y-112507500D01*
G37*
G36*
X141328500Y-110660000D02*
X139976500Y-110660000D01*
X139976500Y-109558000D01*
X141328500Y-109558000D01*
X141328500Y-110660000D01*
X141328500Y-110660000D01*
G37*
G36*
X152669370Y-104393059D02*
X152669375Y-104393065D01*
X153162936Y-104886626D01*
X153162942Y-104886631D01*
X155497797Y-107221486D01*
X155497802Y-107221492D01*
X155991363Y-107715053D01*
X155991369Y-107715058D01*
X156540785Y-108264474D01*
X155337289Y-109467970D01*
X154859992Y-108990673D01*
X154859986Y-108990668D01*
X154222187Y-108352869D01*
X154222182Y-108352863D01*
X152031565Y-106162246D01*
X152031559Y-106162241D01*
X151393760Y-105524442D01*
X151393755Y-105524436D01*
X150916457Y-105047138D01*
X152119953Y-103843642D01*
X152669370Y-104393059D01*
X152669370Y-104393059D01*
G37*
G36*
X150530377Y-105047138D02*
X150053080Y-105524436D01*
X149415270Y-106162246D01*
X148849584Y-106727931D01*
X147718213Y-107859302D01*
X147224653Y-108352863D01*
X146586843Y-108990673D01*
X146109545Y-109467970D01*
X144906049Y-108264474D01*
X145455461Y-107715062D01*
X145455472Y-107715053D01*
X145471736Y-107698790D01*
X145471735Y-107698789D01*
X145932769Y-107237755D01*
X145932770Y-107237756D01*
X145949033Y-107221492D01*
X145949042Y-107221481D01*
X148283888Y-104886635D01*
X148283899Y-104886626D01*
X148300163Y-104870363D01*
X148300162Y-104870362D01*
X148761196Y-104409328D01*
X148761197Y-104409329D01*
X148777460Y-104393065D01*
X148777469Y-104393054D01*
X149326881Y-103843642D01*
X150530377Y-105047138D01*
X150530377Y-105047138D01*
G37*
G36*
X161590943Y-106420519D02*
X161657127Y-106427037D01*
X161770353Y-106461384D01*
X161826967Y-106478557D01*
X161965587Y-106552652D01*
X161983491Y-106562222D01*
X161989822Y-106567418D01*
X162120686Y-106674814D01*
X162203948Y-106776271D01*
X162233278Y-106812009D01*
X162233279Y-106812011D01*
X162316943Y-106968533D01*
X162316943Y-106968534D01*
X162368463Y-107138373D01*
X162385859Y-107315000D01*
X162368463Y-107491627D01*
X162334116Y-107604853D01*
X162316943Y-107661467D01*
X162288295Y-107715062D01*
X162233278Y-107817991D01*
X162203948Y-107853729D01*
X162120686Y-107955186D01*
X162019229Y-108038448D01*
X161983491Y-108067778D01*
X161983489Y-108067779D01*
X161826967Y-108151443D01*
X161770353Y-108168616D01*
X161657127Y-108202963D01*
X161590943Y-108209481D01*
X161524760Y-108216000D01*
X161436240Y-108216000D01*
X161370057Y-108209481D01*
X161303873Y-108202963D01*
X161190647Y-108168616D01*
X161134033Y-108151443D01*
X160977511Y-108067779D01*
X160977509Y-108067778D01*
X160941771Y-108038448D01*
X160840314Y-107955186D01*
X160757052Y-107853729D01*
X160727722Y-107817991D01*
X160672705Y-107715062D01*
X160644057Y-107661467D01*
X160626884Y-107604853D01*
X160592537Y-107491627D01*
X160575141Y-107315000D01*
X160592537Y-107138373D01*
X160644057Y-106968534D01*
X160644057Y-106968533D01*
X160727721Y-106812011D01*
X160727722Y-106812009D01*
X160757052Y-106776271D01*
X160840314Y-106674814D01*
X160971178Y-106567418D01*
X160977509Y-106562222D01*
X160995413Y-106552652D01*
X161134033Y-106478557D01*
X161190647Y-106461384D01*
X161303873Y-106427037D01*
X161370057Y-106420519D01*
X161436240Y-106414000D01*
X161524760Y-106414000D01*
X161590943Y-106420519D01*
X161590943Y-106420519D01*
G37*
G36*
X164921500Y-108216000D02*
X163119500Y-108216000D01*
X163119500Y-106414000D01*
X164921500Y-106414000D01*
X164921500Y-108216000D01*
X164921500Y-108216000D01*
G37*
G36*
X139173000Y-106982500D02*
X136671000Y-106982500D01*
X136671000Y-103555500D01*
X139173000Y-103555500D01*
X139173000Y-106982500D01*
X139173000Y-106982500D01*
G37*
G36*
X141328499Y-106532500D02*
X139976499Y-106532500D01*
X139976499Y-105430500D01*
X141328499Y-105430500D01*
X141328499Y-106532500D01*
X141328499Y-106532500D01*
G37*
G36*
X158259232Y-105451868D02*
X157267868Y-106443232D01*
X156700768Y-105876132D01*
X157692132Y-104884768D01*
X158259232Y-105451868D01*
X158259232Y-105451868D01*
G37*
G36*
X146331234Y-104953870D02*
X145339870Y-105945234D01*
X144772770Y-105378134D01*
X145764134Y-104386770D01*
X146331234Y-104953870D01*
X146331234Y-104953870D01*
G37*
G36*
X161590943Y-103880519D02*
X161657127Y-103887037D01*
X161770353Y-103921384D01*
X161826967Y-103938557D01*
X161965587Y-104012652D01*
X161983491Y-104022222D01*
X162019229Y-104051552D01*
X162120686Y-104134814D01*
X162203948Y-104236271D01*
X162233278Y-104272009D01*
X162233279Y-104272011D01*
X162316943Y-104428533D01*
X162316943Y-104428534D01*
X162368463Y-104598373D01*
X162385859Y-104775000D01*
X162368463Y-104951627D01*
X162339490Y-105047138D01*
X162316943Y-105121467D01*
X162242848Y-105260087D01*
X162233278Y-105277991D01*
X162203948Y-105313729D01*
X162120686Y-105415186D01*
X162019229Y-105498448D01*
X161983491Y-105527778D01*
X161983489Y-105527779D01*
X161826967Y-105611443D01*
X161770353Y-105628616D01*
X161657127Y-105662963D01*
X161590943Y-105669481D01*
X161524760Y-105676000D01*
X161436240Y-105676000D01*
X161370057Y-105669481D01*
X161303873Y-105662963D01*
X161190647Y-105628616D01*
X161134033Y-105611443D01*
X160977511Y-105527779D01*
X160977509Y-105527778D01*
X160941771Y-105498448D01*
X160840314Y-105415186D01*
X160757052Y-105313729D01*
X160727722Y-105277991D01*
X160718152Y-105260087D01*
X160644057Y-105121467D01*
X160621510Y-105047138D01*
X160592537Y-104951627D01*
X160575141Y-104775000D01*
X160592537Y-104598373D01*
X160644057Y-104428534D01*
X160644057Y-104428533D01*
X160727721Y-104272011D01*
X160727722Y-104272009D01*
X160757052Y-104236271D01*
X160840314Y-104134814D01*
X160941771Y-104051552D01*
X160977509Y-104022222D01*
X160995413Y-104012652D01*
X161134033Y-103938557D01*
X161190647Y-103921384D01*
X161303873Y-103887037D01*
X161370057Y-103880519D01*
X161436240Y-103874000D01*
X161524760Y-103874000D01*
X161590943Y-103880519D01*
X161590943Y-103880519D01*
G37*
G36*
X164130943Y-103880519D02*
X164197127Y-103887037D01*
X164310353Y-103921384D01*
X164366967Y-103938557D01*
X164505587Y-104012652D01*
X164523491Y-104022222D01*
X164559229Y-104051552D01*
X164660686Y-104134814D01*
X164743948Y-104236271D01*
X164773278Y-104272009D01*
X164773279Y-104272011D01*
X164856943Y-104428533D01*
X164856943Y-104428534D01*
X164908463Y-104598373D01*
X164925859Y-104775000D01*
X164908463Y-104951627D01*
X164879490Y-105047138D01*
X164856943Y-105121467D01*
X164782848Y-105260087D01*
X164773278Y-105277991D01*
X164743948Y-105313729D01*
X164660686Y-105415186D01*
X164559229Y-105498448D01*
X164523491Y-105527778D01*
X164523489Y-105527779D01*
X164366967Y-105611443D01*
X164310353Y-105628616D01*
X164197127Y-105662963D01*
X164130943Y-105669481D01*
X164064760Y-105676000D01*
X163976240Y-105676000D01*
X163910057Y-105669481D01*
X163843873Y-105662963D01*
X163730647Y-105628616D01*
X163674033Y-105611443D01*
X163517511Y-105527779D01*
X163517509Y-105527778D01*
X163481771Y-105498448D01*
X163380314Y-105415186D01*
X163297052Y-105313729D01*
X163267722Y-105277991D01*
X163258152Y-105260087D01*
X163184057Y-105121467D01*
X163161510Y-105047138D01*
X163132537Y-104951627D01*
X163115141Y-104775000D01*
X163132537Y-104598373D01*
X163184057Y-104428534D01*
X163184057Y-104428533D01*
X163267721Y-104272011D01*
X163267722Y-104272009D01*
X163297052Y-104236271D01*
X163380314Y-104134814D01*
X163481771Y-104051552D01*
X163517509Y-104022222D01*
X163535413Y-104012652D01*
X163674033Y-103938557D01*
X163730647Y-103921384D01*
X163843873Y-103887037D01*
X163910057Y-103880519D01*
X163976240Y-103874000D01*
X164064760Y-103874000D01*
X164130943Y-103880519D01*
X164130943Y-103880519D01*
G37*
G36*
X156915730Y-104108366D02*
X155924366Y-105099730D01*
X155357266Y-104532630D01*
X156348630Y-103541266D01*
X156915730Y-104108366D01*
X156915730Y-104108366D01*
G37*
G36*
X144987732Y-103610368D02*
X143996368Y-104601732D01*
X143429268Y-104034632D01*
X144420632Y-103043268D01*
X144987732Y-103610368D01*
X144987732Y-103610368D01*
G37*
G36*
X141328499Y-104532500D02*
X139976499Y-104532500D01*
X139976499Y-103430500D01*
X141328499Y-103430500D01*
X141328499Y-104532500D01*
X141328499Y-104532500D01*
G37*
G36*
X164130942Y-101340518D02*
X164197127Y-101347037D01*
X164310353Y-101381384D01*
X164366967Y-101398557D01*
X164505587Y-101472652D01*
X164523491Y-101482222D01*
X164559229Y-101511552D01*
X164660686Y-101594814D01*
X164743948Y-101696271D01*
X164773278Y-101732009D01*
X164773279Y-101732011D01*
X164856943Y-101888533D01*
X164856943Y-101888534D01*
X164908463Y-102058373D01*
X164925859Y-102235000D01*
X164908463Y-102411627D01*
X164874116Y-102524853D01*
X164856943Y-102581467D01*
X164782848Y-102720087D01*
X164773278Y-102737991D01*
X164743948Y-102773729D01*
X164660686Y-102875186D01*
X164559229Y-102958448D01*
X164523491Y-102987778D01*
X164523489Y-102987779D01*
X164366967Y-103071443D01*
X164310353Y-103088616D01*
X164197127Y-103122963D01*
X164130942Y-103129482D01*
X164064760Y-103136000D01*
X163976240Y-103136000D01*
X163910058Y-103129482D01*
X163843873Y-103122963D01*
X163730647Y-103088616D01*
X163674033Y-103071443D01*
X163517511Y-102987779D01*
X163517509Y-102987778D01*
X163481771Y-102958448D01*
X163380314Y-102875186D01*
X163297052Y-102773729D01*
X163267722Y-102737991D01*
X163258152Y-102720087D01*
X163184057Y-102581467D01*
X163166884Y-102524853D01*
X163132537Y-102411627D01*
X163115141Y-102235000D01*
X163132537Y-102058373D01*
X163184057Y-101888534D01*
X163184057Y-101888533D01*
X163267721Y-101732011D01*
X163267722Y-101732009D01*
X163297052Y-101696271D01*
X163380314Y-101594814D01*
X163481771Y-101511552D01*
X163517509Y-101482222D01*
X163535413Y-101472652D01*
X163674033Y-101398557D01*
X163730647Y-101381384D01*
X163843873Y-101347037D01*
X163910058Y-101340518D01*
X163976240Y-101334000D01*
X164064760Y-101334000D01*
X164130942Y-101340518D01*
X164130942Y-101340518D01*
G37*
G36*
X161590942Y-101340518D02*
X161657127Y-101347037D01*
X161770353Y-101381384D01*
X161826967Y-101398557D01*
X161965587Y-101472652D01*
X161983491Y-101482222D01*
X162019229Y-101511552D01*
X162120686Y-101594814D01*
X162203948Y-101696271D01*
X162233278Y-101732009D01*
X162233279Y-101732011D01*
X162316943Y-101888533D01*
X162316943Y-101888534D01*
X162368463Y-102058373D01*
X162385859Y-102235000D01*
X162368463Y-102411627D01*
X162334116Y-102524853D01*
X162316943Y-102581467D01*
X162242848Y-102720087D01*
X162233278Y-102737991D01*
X162203948Y-102773729D01*
X162120686Y-102875186D01*
X162019229Y-102958448D01*
X161983491Y-102987778D01*
X161983489Y-102987779D01*
X161826967Y-103071443D01*
X161770353Y-103088616D01*
X161657127Y-103122963D01*
X161590942Y-103129482D01*
X161524760Y-103136000D01*
X161436240Y-103136000D01*
X161370058Y-103129482D01*
X161303873Y-103122963D01*
X161190647Y-103088616D01*
X161134033Y-103071443D01*
X160977511Y-102987779D01*
X160977509Y-102987778D01*
X160941771Y-102958448D01*
X160840314Y-102875186D01*
X160757052Y-102773729D01*
X160727722Y-102737991D01*
X160718152Y-102720087D01*
X160644057Y-102581467D01*
X160626884Y-102524853D01*
X160592537Y-102411627D01*
X160575141Y-102235000D01*
X160592537Y-102058373D01*
X160644057Y-101888534D01*
X160644057Y-101888533D01*
X160727721Y-101732011D01*
X160727722Y-101732009D01*
X160757052Y-101696271D01*
X160840314Y-101594814D01*
X160941771Y-101511552D01*
X160977509Y-101482222D01*
X160995413Y-101472652D01*
X161134033Y-101398557D01*
X161190647Y-101381384D01*
X161303873Y-101347037D01*
X161370058Y-101340518D01*
X161436240Y-101334000D01*
X161524760Y-101334000D01*
X161590942Y-101340518D01*
X161590942Y-101340518D01*
G37*
G36*
X148869000Y-102301000D02*
X148067000Y-102301000D01*
X148067000Y-100899000D01*
X148869000Y-100899000D01*
X148869000Y-102301000D01*
X148869000Y-102301000D01*
G37*
G36*
X155082000Y-102301000D02*
X154280000Y-102301000D01*
X154280000Y-100899000D01*
X155082000Y-100899000D01*
X155082000Y-102301000D01*
X155082000Y-102301000D01*
G37*
G36*
X150769000Y-102301000D02*
X149967000Y-102301000D01*
X149967000Y-100899000D01*
X150769000Y-100899000D01*
X150769000Y-102301000D01*
X150769000Y-102301000D01*
G37*
G36*
X153182000Y-102301000D02*
X152380000Y-102301000D01*
X152380000Y-100899000D01*
X153182000Y-100899000D01*
X153182000Y-102301000D01*
X153182000Y-102301000D01*
G37*
G36*
X157482500Y-101998500D02*
X156080500Y-101998500D01*
X156080500Y-101196500D01*
X157482500Y-101196500D01*
X157482500Y-101998500D01*
X157482500Y-101998500D01*
G37*
G36*
X147170500Y-101960500D02*
X145818500Y-101960500D01*
X145818500Y-100858500D01*
X147170500Y-100858500D01*
X147170500Y-101960500D01*
X147170500Y-101960500D01*
G37*
G36*
X144694000Y-101960500D02*
X143342000Y-101960500D01*
X143342000Y-100858500D01*
X144694000Y-100858500D01*
X144694000Y-101960500D01*
X144694000Y-101960500D01*
G37*
G36*
X150760500Y-100498000D02*
X149658500Y-100498000D01*
X149658500Y-99146000D01*
X150760500Y-99146000D01*
X150760500Y-100498000D01*
X150760500Y-100498000D01*
G37*
G36*
X152760500Y-100498000D02*
X151658500Y-100498000D01*
X151658500Y-99146000D01*
X152760500Y-99146000D01*
X152760500Y-100498000D01*
X152760500Y-100498000D01*
G37*
G36*
X155552500Y-100309500D02*
X154200500Y-100309500D01*
X154200500Y-99207500D01*
X155552500Y-99207500D01*
X155552500Y-100309500D01*
X155552500Y-100309500D01*
G37*
G36*
X157482500Y-100098500D02*
X156080500Y-100098500D01*
X156080500Y-99296500D01*
X157482500Y-99296500D01*
X157482500Y-100098500D01*
X157482500Y-100098500D01*
G37*
G36*
X144694000Y-99960500D02*
X143342000Y-99960500D01*
X143342000Y-98858500D01*
X144694000Y-98858500D01*
X144694000Y-99960500D01*
X144694000Y-99960500D01*
G37*
G36*
X147170500Y-99960500D02*
X145818500Y-99960500D01*
X145818500Y-98858500D01*
X147170500Y-98858500D01*
X147170500Y-99960500D01*
X147170500Y-99960500D01*
G37*
G36*
X155552500Y-98309500D02*
X154200500Y-98309500D01*
X154200500Y-97207500D01*
X155552500Y-97207500D01*
X155552500Y-98309500D01*
X155552500Y-98309500D01*
G37*
G36*
X152451000Y-96634500D02*
X150825000Y-96634500D01*
X150825000Y-94500500D01*
X152451000Y-94500500D01*
X152451000Y-96634500D01*
X152451000Y-96634500D01*
G37*
G36*
X162547500Y-96634500D02*
X160921500Y-96634500D01*
X160921500Y-94500500D01*
X162547500Y-94500500D01*
X162547500Y-96634500D01*
X162547500Y-96634500D01*
G37*
G36*
X157467500Y-96634500D02*
X155841500Y-96634500D01*
X155841500Y-94500500D01*
X157467500Y-94500500D01*
X157467500Y-96634500D01*
X157467500Y-96634500D01*
G37*
G36*
X160007500Y-96634500D02*
X158381500Y-96634500D01*
X158381500Y-94500500D01*
X160007500Y-94500500D01*
X160007500Y-96634500D01*
X160007500Y-96634500D01*
G37*
G36*
X144767500Y-96634500D02*
X143141500Y-96634500D01*
X143141500Y-94500500D01*
X144767500Y-94500500D01*
X144767500Y-96634500D01*
X144767500Y-96634500D01*
G37*
G36*
X142227500Y-96634500D02*
X140601500Y-96634500D01*
X140601500Y-94500500D01*
X142227500Y-94500500D01*
X142227500Y-96634500D01*
X142227500Y-96634500D01*
G37*
G36*
X147307500Y-96634500D02*
X145681500Y-96634500D01*
X145681500Y-94500500D01*
X147307500Y-94500500D01*
X147307500Y-96634500D01*
X147307500Y-96634500D01*
G37*
G36*
X149847500Y-96634500D02*
X148221500Y-96634500D01*
X148221500Y-94500500D01*
X149847500Y-94500500D01*
X149847500Y-96634500D01*
X149847500Y-96634500D01*
G37*
G36*
X154927500Y-96634500D02*
X153301500Y-96634500D01*
X153301500Y-94500500D01*
X154927500Y-94500500D01*
X154927500Y-96634500D01*
X154927500Y-96634500D01*
G37*
M02*
