G04 #@! TF.GenerationSoftware,KiCad,Pcbnew,5.0.2-bee76a0~70~ubuntu16.04.1*
G04 #@! TF.CreationDate,2019-03-15T16:40:36-06:00*
G04 #@! TF.ProjectId,AX25_TNC_modemmodule,41583235-5f54-44e4-935f-6d6f64656d6d,rev?*
G04 #@! TF.SameCoordinates,Original*
G04 #@! TF.FileFunction,Copper,L2,Bot*
G04 #@! TF.FilePolarity,Positive*
%FSLAX46Y46*%
G04 Gerber Fmt 4.6, Leading zero omitted, Abs format (unit mm)*
G04 Created by KiCad (PCBNEW 5.0.2-bee76a0~70~ubuntu16.04.1) date Fri 15 Mar 2019 04:40:36 PM MDT*
%MOMM*%
%LPD*%
G01*
G04 APERTURE LIST*
G04 #@! TA.AperFunction,ComponentPad*
%ADD10R,1.524000X2.032000*%
G04 #@! TD*
G04 #@! TA.AperFunction,ViaPad*
%ADD11C,0.889000*%
G04 #@! TD*
G04 #@! TA.AperFunction,ViaPad*
%ADD12C,0.800000*%
G04 #@! TD*
G04 #@! TA.AperFunction,Conductor*
%ADD13C,0.254000*%
G04 #@! TD*
G04 APERTURE END LIST*
D10*
G04 #@! TO.P,J14,1*
G04 #@! TO.N,/gen2*
X143954500Y-95567500D03*
G04 #@! TD*
G04 #@! TO.P,,1*
G04 #@! TO.N,N/C*
X141414500Y-95567500D03*
G04 #@! TD*
G04 #@! TO.P,gnd,3*
G04 #@! TO.N,GND*
X146494500Y-125031500D03*
G04 #@! TD*
G04 #@! TO.P,ptt,1*
G04 #@! TO.N,/ptt*
X141414500Y-125031500D03*
G04 #@! TD*
G04 #@! TO.P,out,2*
G04 #@! TO.N,/audio_out*
X143954500Y-125031500D03*
G04 #@! TD*
G04 #@! TO.P,txl,8*
G04 #@! TO.N,/txled*
X159194500Y-125031500D03*
G04 #@! TD*
G04 #@! TO.P,g1,6*
G04 #@! TO.N,/gen1*
X154114500Y-125031500D03*
G04 #@! TD*
G04 #@! TO.P,5v,9*
G04 #@! TO.N,+5V*
X161734500Y-125031500D03*
G04 #@! TD*
G04 #@! TO.P,sda,5*
G04 #@! TO.N,/sda*
X151574500Y-125031500D03*
G04 #@! TD*
G04 #@! TO.P,scl,4*
G04 #@! TO.N,/scl*
X149034500Y-125031500D03*
G04 #@! TD*
G04 #@! TO.P,rxl,7*
G04 #@! TO.N,/rxled*
X156654500Y-125095000D03*
G04 #@! TD*
G04 #@! TO.P,tx,1*
G04 #@! TO.N,/tnc_rx*
X149034500Y-95567500D03*
G04 #@! TD*
G04 #@! TO.P,g2,1*
G04 #@! TO.N,/tnc_tx*
X146494500Y-95567500D03*
G04 #@! TD*
G04 #@! TO.P,ain,1*
G04 #@! TO.N,/audio_in*
X154114500Y-95567500D03*
G04 #@! TD*
G04 #@! TO.P,osi,11*
G04 #@! TO.N,/mosi*
X159194500Y-95567500D03*
G04 #@! TD*
G04 #@! TO.P,sck,1*
G04 #@! TO.N,/sck*
X156654500Y-95567500D03*
G04 #@! TD*
G04 #@! TO.P,iso,10*
G04 #@! TO.N,/miso*
X161734500Y-95567500D03*
G04 #@! TD*
G04 #@! TO.P,rx,1*
G04 #@! TO.N,/gen3*
X151638000Y-95567500D03*
G04 #@! TD*
D11*
G04 #@! TO.N,GND*
X154368500Y-104584500D03*
X137922000Y-102616000D03*
X142303500Y-115506500D03*
X145224500Y-99123500D03*
X152908000Y-122872500D03*
X164719000Y-122555000D03*
X138176000Y-115506500D03*
X147510500Y-110045500D03*
X144462500Y-109664500D03*
X148272500Y-120904000D03*
X157480000Y-121920000D03*
D12*
X145161000Y-123190000D03*
D11*
X156781500Y-102806500D03*
D12*
X159385000Y-102679500D03*
X161480500Y-99758500D03*
G04 #@! TO.N,+5V*
X148653500Y-109283500D03*
X146430998Y-103060500D03*
G04 #@! TO.N,Net-(C4-Pad2)*
X147660045Y-115656045D03*
X141731996Y-105981500D03*
G04 #@! TO.N,Net-(C5-Pad2)*
X147637500Y-116776500D03*
X141732000Y-110172500D03*
D11*
G04 #@! TO.N,/sda*
X150685500Y-108458000D03*
G04 #@! TO.N,/scl*
X149415500Y-108077000D03*
D12*
G04 #@! TO.N,/mosi*
X159518074Y-109924574D03*
X159512000Y-104775000D03*
G04 #@! TO.N,/miso*
X160609927Y-109324234D03*
X163957000Y-109347000D03*
G04 #@! TO.N,/sck*
X156724067Y-107448067D03*
X165706490Y-103632000D03*
X157733996Y-103505000D03*
G04 #@! TO.N,/reset*
X146240500Y-105727500D03*
X160909000Y-97853498D03*
G04 #@! TO.N,Net-(R5-Pad2)*
X149542500Y-116395500D03*
X145294067Y-112261933D03*
D11*
G04 #@! TO.N,/gen1*
X152209500Y-111823500D03*
G04 #@! TO.N,/txled*
X158909783Y-112310283D03*
G04 #@! TO.N,/gen3*
X147574000Y-102933500D03*
G04 #@! TD*
D13*
G04 #@! TO.N,+5V*
X146030999Y-103460499D02*
X146430998Y-103060500D01*
X145161000Y-104330498D02*
X146030999Y-103460499D01*
X148653500Y-109283500D02*
X145161000Y-105791000D01*
X145161000Y-105791000D02*
X145161000Y-104330498D01*
G04 #@! TO.N,Net-(C4-Pad2)*
X142131995Y-106381499D02*
X141731996Y-105981500D01*
X142494000Y-106743504D02*
X142131995Y-106381499D01*
X147660045Y-115656045D02*
X142494000Y-110490000D01*
X142494000Y-110490000D02*
X142494000Y-106743504D01*
G04 #@! TO.N,Net-(C5-Pad2)*
X141732000Y-110738185D02*
X141732000Y-110172500D01*
X141732000Y-110871000D02*
X141732000Y-110738185D01*
X147637500Y-116776500D02*
X141732000Y-110871000D01*
G04 #@! TO.N,/sda*
X150685500Y-108458000D02*
X150685500Y-114864434D01*
X151574500Y-115753434D02*
X151574500Y-125031500D01*
X150685500Y-114864434D02*
X151574500Y-115753434D01*
X151574500Y-125031500D02*
X151574500Y-125031500D01*
G04 #@! TO.N,/scl*
X149415500Y-108077000D02*
X149415500Y-114236500D01*
X150269501Y-122526499D02*
X149034500Y-123761500D01*
X150269501Y-115090501D02*
X150269501Y-122526499D01*
X149034500Y-123761500D02*
X149034500Y-125031500D01*
X149415500Y-114236500D02*
X150269501Y-115090501D01*
X149034500Y-125031500D02*
X149034500Y-125031500D01*
G04 #@! TO.N,/mosi*
X159518074Y-109924574D02*
X159518074Y-104781074D01*
X159518074Y-104781074D02*
X159512000Y-104775000D01*
G04 #@! TO.N,/miso*
X160609927Y-109324234D02*
X163934234Y-109324234D01*
X163934234Y-109324234D02*
X163957000Y-109347000D01*
X160609927Y-109324234D02*
X164106766Y-109324234D01*
X164106766Y-109324234D02*
X166433500Y-106997500D01*
X166433500Y-106997500D02*
X166433500Y-100266500D01*
X166433500Y-100266500D02*
X161734500Y-95567500D01*
G04 #@! TO.N,/sck*
X157860996Y-103632000D02*
X157733996Y-103505000D01*
X165706490Y-103632000D02*
X157860996Y-103632000D01*
X157733996Y-106438138D02*
X157733996Y-104070685D01*
X156724067Y-107448067D02*
X157733996Y-106438138D01*
X157733996Y-104070685D02*
X157733996Y-103505000D01*
G04 #@! TO.N,/reset*
X154114502Y-97853498D02*
X160343315Y-97853498D01*
X146240500Y-105727500D02*
X154114502Y-97853498D01*
X160343315Y-97853498D02*
X160909000Y-97853498D01*
G04 #@! TO.N,Net-(R5-Pad2)*
X149542500Y-116395500D02*
X145408933Y-112261933D01*
X145408933Y-112261933D02*
X145294067Y-112261933D01*
G04 #@! TO.N,/gen1*
X154114500Y-113728500D02*
X152209500Y-111823500D01*
X154114500Y-125031500D02*
X154114500Y-125031500D01*
X154114500Y-125031500D02*
X154114500Y-113728500D01*
G04 #@! TO.N,/txled*
X159194500Y-112595000D02*
X159194500Y-125031500D01*
X158909783Y-112310283D02*
X159194500Y-112595000D01*
X159194500Y-125031500D02*
X159194500Y-125031500D01*
G04 #@! TO.N,/gen3*
X147574000Y-102933500D02*
X147574000Y-101790500D01*
X151638000Y-97726500D02*
X151638000Y-95567500D01*
X147574000Y-101790500D02*
X151638000Y-97726500D01*
X151638000Y-95567500D02*
X151638000Y-95567500D01*
G04 #@! TD*
G04 #@! TO.N,GND*
G36*
X165671501Y-100582132D02*
X165671501Y-102597000D01*
X165500616Y-102597000D01*
X165120210Y-102754569D01*
X165004779Y-102870000D01*
X158562707Y-102870000D01*
X158320276Y-102627569D01*
X157939870Y-102470000D01*
X157528122Y-102470000D01*
X157147716Y-102627569D01*
X156856565Y-102918720D01*
X156698996Y-103299126D01*
X156698996Y-103710874D01*
X156856565Y-104091280D01*
X156971997Y-104206712D01*
X156971996Y-106122507D01*
X156681437Y-106413067D01*
X156518193Y-106413067D01*
X156137787Y-106570636D01*
X155846636Y-106861787D01*
X155689067Y-107242193D01*
X155689067Y-107653941D01*
X155846636Y-108034347D01*
X156137787Y-108325498D01*
X156518193Y-108483067D01*
X156929941Y-108483067D01*
X157310347Y-108325498D01*
X157601498Y-108034347D01*
X157759067Y-107653941D01*
X157759067Y-107490697D01*
X158219746Y-107030019D01*
X158283367Y-106987509D01*
X158325878Y-106923887D01*
X158451783Y-106735457D01*
X158451783Y-106735456D01*
X158451784Y-106735455D01*
X158495996Y-106513186D01*
X158495996Y-106513182D01*
X158510923Y-106438139D01*
X158495996Y-106363096D01*
X158495996Y-105026734D01*
X158634569Y-105361280D01*
X158756075Y-105482786D01*
X158756074Y-109222863D01*
X158640643Y-109338294D01*
X158483074Y-109718700D01*
X158483074Y-110130448D01*
X158640643Y-110510854D01*
X158931794Y-110802005D01*
X159312200Y-110959574D01*
X159723948Y-110959574D01*
X160104354Y-110802005D01*
X160395505Y-110510854D01*
X160458308Y-110359234D01*
X160815801Y-110359234D01*
X161196207Y-110201665D01*
X161311638Y-110086234D01*
X163232523Y-110086234D01*
X163370720Y-110224431D01*
X163751126Y-110382000D01*
X164162874Y-110382000D01*
X164543280Y-110224431D01*
X164834431Y-109933280D01*
X164992000Y-109552874D01*
X164992000Y-109516630D01*
X166485500Y-108023130D01*
X166485501Y-124966579D01*
X163143940Y-124959896D01*
X163143940Y-124015500D01*
X163094657Y-123767735D01*
X162954309Y-123557691D01*
X162744265Y-123417343D01*
X162496500Y-123368060D01*
X160972500Y-123368060D01*
X160724735Y-123417343D01*
X160514691Y-123557691D01*
X160464500Y-123632807D01*
X160414309Y-123557691D01*
X160204265Y-123417343D01*
X159956500Y-123368060D01*
X159956500Y-112670047D01*
X159971428Y-112595000D01*
X159967815Y-112576837D01*
X159989283Y-112525009D01*
X159989283Y-112095557D01*
X159824939Y-111698795D01*
X159521271Y-111395127D01*
X159124509Y-111230783D01*
X158695057Y-111230783D01*
X158298295Y-111395127D01*
X157994627Y-111698795D01*
X157830283Y-112095557D01*
X157830283Y-112525009D01*
X157994627Y-112921771D01*
X158298295Y-113225439D01*
X158432500Y-113281028D01*
X158432501Y-123368060D01*
X158432500Y-123368060D01*
X158184735Y-123417343D01*
X157974691Y-123557691D01*
X157903285Y-123664557D01*
X157874309Y-123621191D01*
X157664265Y-123480843D01*
X157416500Y-123431560D01*
X155892500Y-123431560D01*
X155644735Y-123480843D01*
X155434691Y-123621191D01*
X155405715Y-123664557D01*
X155334309Y-123557691D01*
X155124265Y-123417343D01*
X154876500Y-123368060D01*
X154876500Y-113803547D01*
X154891428Y-113728500D01*
X154874743Y-113644618D01*
X154832288Y-113431183D01*
X154663871Y-113179129D01*
X154600249Y-113136618D01*
X153289000Y-111825370D01*
X153289000Y-111608774D01*
X153124656Y-111212012D01*
X152820988Y-110908344D01*
X152424226Y-110744000D01*
X151994774Y-110744000D01*
X151598012Y-110908344D01*
X151447500Y-111058856D01*
X151447500Y-109222644D01*
X151600656Y-109069488D01*
X151765000Y-108672726D01*
X151765000Y-108243274D01*
X151600656Y-107846512D01*
X151296988Y-107542844D01*
X150900226Y-107378500D01*
X150470774Y-107378500D01*
X150310169Y-107445025D01*
X150026988Y-107161844D01*
X149630226Y-106997500D01*
X149200774Y-106997500D01*
X148804012Y-107161844D01*
X148500344Y-107465512D01*
X148336000Y-107862274D01*
X148336000Y-107888369D01*
X146939671Y-106492040D01*
X147117931Y-106313780D01*
X147275500Y-105933374D01*
X147275500Y-105770130D01*
X154430133Y-98615498D01*
X160207289Y-98615498D01*
X160322720Y-98730929D01*
X160703126Y-98888498D01*
X161114874Y-98888498D01*
X161495280Y-98730929D01*
X161786431Y-98439778D01*
X161944000Y-98059372D01*
X161944000Y-97647624D01*
X161786431Y-97267218D01*
X161750153Y-97230940D01*
X162320310Y-97230940D01*
X165671501Y-100582132D01*
X165671501Y-100582132D01*
G37*
X165671501Y-100582132D02*
X165671501Y-102597000D01*
X165500616Y-102597000D01*
X165120210Y-102754569D01*
X165004779Y-102870000D01*
X158562707Y-102870000D01*
X158320276Y-102627569D01*
X157939870Y-102470000D01*
X157528122Y-102470000D01*
X157147716Y-102627569D01*
X156856565Y-102918720D01*
X156698996Y-103299126D01*
X156698996Y-103710874D01*
X156856565Y-104091280D01*
X156971997Y-104206712D01*
X156971996Y-106122507D01*
X156681437Y-106413067D01*
X156518193Y-106413067D01*
X156137787Y-106570636D01*
X155846636Y-106861787D01*
X155689067Y-107242193D01*
X155689067Y-107653941D01*
X155846636Y-108034347D01*
X156137787Y-108325498D01*
X156518193Y-108483067D01*
X156929941Y-108483067D01*
X157310347Y-108325498D01*
X157601498Y-108034347D01*
X157759067Y-107653941D01*
X157759067Y-107490697D01*
X158219746Y-107030019D01*
X158283367Y-106987509D01*
X158325878Y-106923887D01*
X158451783Y-106735457D01*
X158451783Y-106735456D01*
X158451784Y-106735455D01*
X158495996Y-106513186D01*
X158495996Y-106513182D01*
X158510923Y-106438139D01*
X158495996Y-106363096D01*
X158495996Y-105026734D01*
X158634569Y-105361280D01*
X158756075Y-105482786D01*
X158756074Y-109222863D01*
X158640643Y-109338294D01*
X158483074Y-109718700D01*
X158483074Y-110130448D01*
X158640643Y-110510854D01*
X158931794Y-110802005D01*
X159312200Y-110959574D01*
X159723948Y-110959574D01*
X160104354Y-110802005D01*
X160395505Y-110510854D01*
X160458308Y-110359234D01*
X160815801Y-110359234D01*
X161196207Y-110201665D01*
X161311638Y-110086234D01*
X163232523Y-110086234D01*
X163370720Y-110224431D01*
X163751126Y-110382000D01*
X164162874Y-110382000D01*
X164543280Y-110224431D01*
X164834431Y-109933280D01*
X164992000Y-109552874D01*
X164992000Y-109516630D01*
X166485500Y-108023130D01*
X166485501Y-124966579D01*
X163143940Y-124959896D01*
X163143940Y-124015500D01*
X163094657Y-123767735D01*
X162954309Y-123557691D01*
X162744265Y-123417343D01*
X162496500Y-123368060D01*
X160972500Y-123368060D01*
X160724735Y-123417343D01*
X160514691Y-123557691D01*
X160464500Y-123632807D01*
X160414309Y-123557691D01*
X160204265Y-123417343D01*
X159956500Y-123368060D01*
X159956500Y-112670047D01*
X159971428Y-112595000D01*
X159967815Y-112576837D01*
X159989283Y-112525009D01*
X159989283Y-112095557D01*
X159824939Y-111698795D01*
X159521271Y-111395127D01*
X159124509Y-111230783D01*
X158695057Y-111230783D01*
X158298295Y-111395127D01*
X157994627Y-111698795D01*
X157830283Y-112095557D01*
X157830283Y-112525009D01*
X157994627Y-112921771D01*
X158298295Y-113225439D01*
X158432500Y-113281028D01*
X158432501Y-123368060D01*
X158432500Y-123368060D01*
X158184735Y-123417343D01*
X157974691Y-123557691D01*
X157903285Y-123664557D01*
X157874309Y-123621191D01*
X157664265Y-123480843D01*
X157416500Y-123431560D01*
X155892500Y-123431560D01*
X155644735Y-123480843D01*
X155434691Y-123621191D01*
X155405715Y-123664557D01*
X155334309Y-123557691D01*
X155124265Y-123417343D01*
X154876500Y-123368060D01*
X154876500Y-113803547D01*
X154891428Y-113728500D01*
X154874743Y-113644618D01*
X154832288Y-113431183D01*
X154663871Y-113179129D01*
X154600249Y-113136618D01*
X153289000Y-111825370D01*
X153289000Y-111608774D01*
X153124656Y-111212012D01*
X152820988Y-110908344D01*
X152424226Y-110744000D01*
X151994774Y-110744000D01*
X151598012Y-110908344D01*
X151447500Y-111058856D01*
X151447500Y-109222644D01*
X151600656Y-109069488D01*
X151765000Y-108672726D01*
X151765000Y-108243274D01*
X151600656Y-107846512D01*
X151296988Y-107542844D01*
X150900226Y-107378500D01*
X150470774Y-107378500D01*
X150310169Y-107445025D01*
X150026988Y-107161844D01*
X149630226Y-106997500D01*
X149200774Y-106997500D01*
X148804012Y-107161844D01*
X148500344Y-107465512D01*
X148336000Y-107862274D01*
X148336000Y-107888369D01*
X146939671Y-106492040D01*
X147117931Y-106313780D01*
X147275500Y-105933374D01*
X147275500Y-105770130D01*
X154430133Y-98615498D01*
X160207289Y-98615498D01*
X160322720Y-98730929D01*
X160703126Y-98888498D01*
X161114874Y-98888498D01*
X161495280Y-98730929D01*
X161786431Y-98439778D01*
X161944000Y-98059372D01*
X161944000Y-97647624D01*
X161786431Y-97267218D01*
X161750153Y-97230940D01*
X162320310Y-97230940D01*
X165671501Y-100582132D01*
G36*
X140005060Y-96583500D02*
X140054343Y-96831265D01*
X140194691Y-97041309D01*
X140404735Y-97181657D01*
X140652500Y-97230940D01*
X142176500Y-97230940D01*
X142424265Y-97181657D01*
X142634309Y-97041309D01*
X142684500Y-96966193D01*
X142734691Y-97041309D01*
X142944735Y-97181657D01*
X143192500Y-97230940D01*
X144716500Y-97230940D01*
X144964265Y-97181657D01*
X145174309Y-97041309D01*
X145224500Y-96966193D01*
X145274691Y-97041309D01*
X145484735Y-97181657D01*
X145732500Y-97230940D01*
X147256500Y-97230940D01*
X147504265Y-97181657D01*
X147714309Y-97041309D01*
X147764500Y-96966193D01*
X147814691Y-97041309D01*
X148024735Y-97181657D01*
X148272500Y-97230940D01*
X149796500Y-97230940D01*
X150044265Y-97181657D01*
X150254309Y-97041309D01*
X150336250Y-96918677D01*
X150418191Y-97041309D01*
X150628235Y-97181657D01*
X150876000Y-97230940D01*
X150876000Y-97410869D01*
X147088251Y-101198619D01*
X147024630Y-101241129D01*
X146982119Y-101304751D01*
X146982118Y-101304752D01*
X146856213Y-101493183D01*
X146797073Y-101790500D01*
X146812001Y-101865548D01*
X146812001Y-102098041D01*
X146636872Y-102025500D01*
X146225124Y-102025500D01*
X145844718Y-102183069D01*
X145553567Y-102474220D01*
X145395998Y-102854626D01*
X145395998Y-103017869D01*
X144675251Y-103738617D01*
X144611630Y-103781127D01*
X144569119Y-103844749D01*
X144569118Y-103844750D01*
X144443213Y-104033181D01*
X144384073Y-104330498D01*
X144399001Y-104405546D01*
X144399000Y-105715956D01*
X144384073Y-105791000D01*
X144399000Y-105866043D01*
X144399000Y-105866047D01*
X144443212Y-106088316D01*
X144611629Y-106340371D01*
X144675253Y-106382883D01*
X147618500Y-109326131D01*
X147618500Y-109489374D01*
X147776069Y-109869780D01*
X148067220Y-110160931D01*
X148447626Y-110318500D01*
X148653500Y-110318500D01*
X148653501Y-114161452D01*
X148638573Y-114236500D01*
X148653501Y-114311548D01*
X148682632Y-114458002D01*
X146329067Y-112104437D01*
X146329067Y-112056059D01*
X146171498Y-111675653D01*
X145880347Y-111384502D01*
X145499941Y-111226933D01*
X145088193Y-111226933D01*
X144707787Y-111384502D01*
X144586960Y-111505329D01*
X143256000Y-110174370D01*
X143256000Y-106818546D01*
X143270927Y-106743503D01*
X143256000Y-106668460D01*
X143256000Y-106668456D01*
X143211788Y-106446187D01*
X143043371Y-106194133D01*
X142979746Y-106151620D01*
X142766996Y-105938870D01*
X142766996Y-105775626D01*
X142609427Y-105395220D01*
X142318276Y-105104069D01*
X141937870Y-104946500D01*
X141526122Y-104946500D01*
X141145716Y-105104069D01*
X140854565Y-105395220D01*
X140696996Y-105775626D01*
X140696996Y-106187374D01*
X140854565Y-106567780D01*
X141145716Y-106858931D01*
X141526122Y-107016500D01*
X141689366Y-107016500D01*
X141732001Y-107059135D01*
X141732000Y-109137500D01*
X141526126Y-109137500D01*
X141145720Y-109295069D01*
X140854569Y-109586220D01*
X140697000Y-109966626D01*
X140697000Y-110378374D01*
X140854569Y-110758780D01*
X140957017Y-110861228D01*
X140955073Y-110871000D01*
X140970000Y-110946043D01*
X140970000Y-110946047D01*
X141014212Y-111168316D01*
X141182629Y-111420371D01*
X141246253Y-111462883D01*
X146602500Y-116819131D01*
X146602500Y-116982374D01*
X146760069Y-117362780D01*
X147051220Y-117653931D01*
X147431626Y-117811500D01*
X147843374Y-117811500D01*
X148223780Y-117653931D01*
X148514931Y-117362780D01*
X148670497Y-116987208D01*
X148956220Y-117272931D01*
X149336626Y-117430500D01*
X149507501Y-117430500D01*
X149507502Y-122210867D01*
X148548753Y-123169617D01*
X148485129Y-123212129D01*
X148380940Y-123368060D01*
X148272500Y-123368060D01*
X148024735Y-123417343D01*
X147814691Y-123557691D01*
X147674343Y-123767735D01*
X147625060Y-124015500D01*
X147625060Y-124928858D01*
X145363940Y-124924336D01*
X145363940Y-124015500D01*
X145314657Y-123767735D01*
X145174309Y-123557691D01*
X144964265Y-123417343D01*
X144716500Y-123368060D01*
X143192500Y-123368060D01*
X142944735Y-123417343D01*
X142734691Y-123557691D01*
X142684500Y-123632807D01*
X142634309Y-123557691D01*
X142424265Y-123417343D01*
X142176500Y-123368060D01*
X140652500Y-123368060D01*
X140404735Y-123417343D01*
X140194691Y-123557691D01*
X140054343Y-123767735D01*
X140005060Y-124015500D01*
X140005060Y-124913618D01*
X136155500Y-124905919D01*
X136155500Y-95567500D01*
X140005060Y-95567500D01*
X140005060Y-96583500D01*
X140005060Y-96583500D01*
G37*
X140005060Y-96583500D02*
X140054343Y-96831265D01*
X140194691Y-97041309D01*
X140404735Y-97181657D01*
X140652500Y-97230940D01*
X142176500Y-97230940D01*
X142424265Y-97181657D01*
X142634309Y-97041309D01*
X142684500Y-96966193D01*
X142734691Y-97041309D01*
X142944735Y-97181657D01*
X143192500Y-97230940D01*
X144716500Y-97230940D01*
X144964265Y-97181657D01*
X145174309Y-97041309D01*
X145224500Y-96966193D01*
X145274691Y-97041309D01*
X145484735Y-97181657D01*
X145732500Y-97230940D01*
X147256500Y-97230940D01*
X147504265Y-97181657D01*
X147714309Y-97041309D01*
X147764500Y-96966193D01*
X147814691Y-97041309D01*
X148024735Y-97181657D01*
X148272500Y-97230940D01*
X149796500Y-97230940D01*
X150044265Y-97181657D01*
X150254309Y-97041309D01*
X150336250Y-96918677D01*
X150418191Y-97041309D01*
X150628235Y-97181657D01*
X150876000Y-97230940D01*
X150876000Y-97410869D01*
X147088251Y-101198619D01*
X147024630Y-101241129D01*
X146982119Y-101304751D01*
X146982118Y-101304752D01*
X146856213Y-101493183D01*
X146797073Y-101790500D01*
X146812001Y-101865548D01*
X146812001Y-102098041D01*
X146636872Y-102025500D01*
X146225124Y-102025500D01*
X145844718Y-102183069D01*
X145553567Y-102474220D01*
X145395998Y-102854626D01*
X145395998Y-103017869D01*
X144675251Y-103738617D01*
X144611630Y-103781127D01*
X144569119Y-103844749D01*
X144569118Y-103844750D01*
X144443213Y-104033181D01*
X144384073Y-104330498D01*
X144399001Y-104405546D01*
X144399000Y-105715956D01*
X144384073Y-105791000D01*
X144399000Y-105866043D01*
X144399000Y-105866047D01*
X144443212Y-106088316D01*
X144611629Y-106340371D01*
X144675253Y-106382883D01*
X147618500Y-109326131D01*
X147618500Y-109489374D01*
X147776069Y-109869780D01*
X148067220Y-110160931D01*
X148447626Y-110318500D01*
X148653500Y-110318500D01*
X148653501Y-114161452D01*
X148638573Y-114236500D01*
X148653501Y-114311548D01*
X148682632Y-114458002D01*
X146329067Y-112104437D01*
X146329067Y-112056059D01*
X146171498Y-111675653D01*
X145880347Y-111384502D01*
X145499941Y-111226933D01*
X145088193Y-111226933D01*
X144707787Y-111384502D01*
X144586960Y-111505329D01*
X143256000Y-110174370D01*
X143256000Y-106818546D01*
X143270927Y-106743503D01*
X143256000Y-106668460D01*
X143256000Y-106668456D01*
X143211788Y-106446187D01*
X143043371Y-106194133D01*
X142979746Y-106151620D01*
X142766996Y-105938870D01*
X142766996Y-105775626D01*
X142609427Y-105395220D01*
X142318276Y-105104069D01*
X141937870Y-104946500D01*
X141526122Y-104946500D01*
X141145716Y-105104069D01*
X140854565Y-105395220D01*
X140696996Y-105775626D01*
X140696996Y-106187374D01*
X140854565Y-106567780D01*
X141145716Y-106858931D01*
X141526122Y-107016500D01*
X141689366Y-107016500D01*
X141732001Y-107059135D01*
X141732000Y-109137500D01*
X141526126Y-109137500D01*
X141145720Y-109295069D01*
X140854569Y-109586220D01*
X140697000Y-109966626D01*
X140697000Y-110378374D01*
X140854569Y-110758780D01*
X140957017Y-110861228D01*
X140955073Y-110871000D01*
X140970000Y-110946043D01*
X140970000Y-110946047D01*
X141014212Y-111168316D01*
X141182629Y-111420371D01*
X141246253Y-111462883D01*
X146602500Y-116819131D01*
X146602500Y-116982374D01*
X146760069Y-117362780D01*
X147051220Y-117653931D01*
X147431626Y-117811500D01*
X147843374Y-117811500D01*
X148223780Y-117653931D01*
X148514931Y-117362780D01*
X148670497Y-116987208D01*
X148956220Y-117272931D01*
X149336626Y-117430500D01*
X149507501Y-117430500D01*
X149507502Y-122210867D01*
X148548753Y-123169617D01*
X148485129Y-123212129D01*
X148380940Y-123368060D01*
X148272500Y-123368060D01*
X148024735Y-123417343D01*
X147814691Y-123557691D01*
X147674343Y-123767735D01*
X147625060Y-124015500D01*
X147625060Y-124928858D01*
X145363940Y-124924336D01*
X145363940Y-124015500D01*
X145314657Y-123767735D01*
X145174309Y-123557691D01*
X144964265Y-123417343D01*
X144716500Y-123368060D01*
X143192500Y-123368060D01*
X142944735Y-123417343D01*
X142734691Y-123557691D01*
X142684500Y-123632807D01*
X142634309Y-123557691D01*
X142424265Y-123417343D01*
X142176500Y-123368060D01*
X140652500Y-123368060D01*
X140404735Y-123417343D01*
X140194691Y-123557691D01*
X140054343Y-123767735D01*
X140005060Y-124015500D01*
X140005060Y-124913618D01*
X136155500Y-124905919D01*
X136155500Y-95567500D01*
X140005060Y-95567500D01*
X140005060Y-96583500D01*
G36*
X151598012Y-112738656D02*
X151994774Y-112903000D01*
X152211370Y-112903000D01*
X153352501Y-114044132D01*
X153352500Y-123368060D01*
X153104735Y-123417343D01*
X152894691Y-123557691D01*
X152844500Y-123632807D01*
X152794309Y-123557691D01*
X152584265Y-123417343D01*
X152336500Y-123368060D01*
X152336500Y-115828481D01*
X152351428Y-115753434D01*
X152328839Y-115639872D01*
X152292288Y-115456117D01*
X152123871Y-115204063D01*
X152060250Y-115161553D01*
X151447500Y-114548804D01*
X151447500Y-112588144D01*
X151598012Y-112738656D01*
X151598012Y-112738656D01*
G37*
X151598012Y-112738656D02*
X151994774Y-112903000D01*
X152211370Y-112903000D01*
X153352501Y-114044132D01*
X153352500Y-123368060D01*
X153104735Y-123417343D01*
X152894691Y-123557691D01*
X152844500Y-123632807D01*
X152794309Y-123557691D01*
X152584265Y-123417343D01*
X152336500Y-123368060D01*
X152336500Y-115828481D01*
X152351428Y-115753434D01*
X152328839Y-115639872D01*
X152292288Y-115456117D01*
X152123871Y-115204063D01*
X152060250Y-115161553D01*
X151447500Y-114548804D01*
X151447500Y-112588144D01*
X151598012Y-112738656D01*
G04 #@! TD*
M02*
